<svg id="Layer_5" data-name="Layer 5" xmlns="http://www.w3.org/2000/svg" viewBox="0 0 1120.05 545"><defs><style>.cls-1,.cls-2,.cls-3{fill:none;stroke:#231f20}.cls-1,.cls-2,.cls-3,.cls-4{stroke-linecap:round;stroke-linejoin:round}.cls-2{stroke-width:.5px}.cls-3,.cls-4{stroke-width:.25px}.cls-4{fill:#fff;stroke:#000}</style></defs><path class="cls-1" d="M366.48 734.5c-92.25-66-96-133.79-96-133.79L501.24 754a21.21 21.21 0 0 1-16 8M501.24 754l671-343.91a46.31 46.31 0 0 0 6-3.69c6.63-4.85 23-17.21 34.88-29.36a43.44 43.44 0 0 0 12.16-37.44c-2.2-12.9-10.62-27.47-34.89-35.71" transform="translate(-159.98 -231.5)"/><path class="cls-1" d="M416.12 237.37l113.46 66.13 70.34-29M536.25 349.95l-23.17 10.72"/><path class="cls-1" d="M609.75 245.5l-27.17 83-27.87 12.9M531.33 358.59L510.75 368l-41.17-25.5 18.34-59.67-73.51-42.95M585.1 333.99l-27.96 12.79M427.12 221.11l53.8 31.72 1.6 23.24M600.11 234.19l-18.86 6.98-41.5-22.67-21.5 6.67-7.83-4.67-21 7.5-88.34-52.17-1.13 4.62"/><path class="cls-1" d="M644.75 236.67l-2.5 10.66-11.33 5-33-11.16 4.5-14.34 31.5 15.17 10.83-5.33-50.77-29.48M633.92 242l-3 10.33M484.22 249.54l5.03-19.04 20.83-7.33 7.5 4.5 20.17-5.84-3 9.5-10.77-5.51M404.55 180.28l-3.82-2.3M422.62 191.14l-10.43-6.27M480.57 249.03l5.85-19.53-56.31-33.85M416.52 164.53l-14.1 4.47-1.34 6.83 13.84-4.33M419.25 121.5l-2.17 9.67 15.86 15.57M417.08 131.17l9 17.79M421.58 135.59l6.67 12.67M574.75 264.67l-70.84-39.33M436.97 276.26l44.72 26.82M436.12 278.68l44.86 26.72M486.42 281.96l-11.49 17.07M486.42 287.72l-8.86 12.88M459.29 266.11l-10.19 17.43M456.82 264.67l-9.57 17.29M427.05 247.27l-3.64 7.12M424.73 245.92l-3.56 6.83M480.49 142.32l-.74-.4-8.37 2.32M466.52 145.58l-9.7 2.68L443.25 198l31.68 19 24.5-8.5 13.65-48.5-18.61-10.1"/><path class="cls-1" d="M456.82 148.26l31.42 18.18 24.84-6.44M488.24 166.44L474.93 217"/><path class="cls-1" d="M666.38 415.22l18.1 11.28 25-8.5s15.75 11.5 47.75 7L651 367.09l-16.07 5.35" transform="translate(-159.98 -231.5)"/><path class="cls-2" d="M420.04 231.57l111.71 64.26 25.67-10.66"/><path class="cls-2" d="M555.92 289.21l-25.17 9.82-112.5-64.81M428.89 236.67l-1.96 7M437.33 241.52l-1.91 7.1M449.17 248.26l-1.92 7.09M459.29 254.15l-1.86 7.3M469.46 260l-1.53 7.56M480.06 266.1l-2 7.37"/><path class="cls-2" d="M487.02 273.84l25-9.57 9.44 5.28M489.32 280.03l1.6-7.68M502.43 278.97l-1.43 7.87M513.99 285.62l-1.21 8.08"/><path class="cls-1" d="M519.05 339.58l-8.3 28.42M529.58 303.5l-8.98 30.76"/><path class="cls-2" d="M531.75 295.83l-2.17 7.67M541.84 291.64l-1.41 7.39M550 288.25l-1.08 7.09M432.91 212.56L482.52 242M486.17 242.17l26.61-9 51.64 28.28 12.23-3.65"/><path class="cls-2" d="M575.64 261.45l-12.06 3.22-50.8-28-27.49 8.83M430.75 215.75l50.94 29.51M434.26 213.36l-1.78 7.61M443.9 219.08l-2.28 7.22M453.86 224.99l-1.93 7.33M463.71 230.83l-1.6 7.43M473.98 236.93l-1.9 7.15M492.85 239.91l-1.43 6.99M499.85 237.54l-1.28 6.73M506.7 235.22l-1.2 6.51M512.78 233.17l-1.2 6.33"/><path class="cls-2" d="M683.29 470.44c-.06.37-1.25 6.06-1.25 6.06" transform="translate(-159.98 -231.5)"/><path class="cls-2" d="M533.32 244.42l-1.38 6.25M543.26 249.86l-1.73 6.87M553.42 255.42l-1.63 7.21M564.42 261.45l-1.84 7.38M402.42 169l88.5 51.5 20.66-6.49 7.54 4.75 22.41-7.87 41.79 23.23 18.78-6.28"/><path class="cls-2" d="M401.77 172.31L490.12 224l20.87-6.84 7.95 4.67 21.37-7.16 41.94 22.87 18.91-6.71"/><path class="cls-1" d="M581.25 241.17l-6.5 23.5-12.17 4.16-51-29.33-29.06 10.67-53.81-31.4"/><path class="cls-2" d="M583.32 234.12l-2.07 7.05M593.49 230.72l-1.19 6.36M571.95 227.8l-2.09 7.15M560.85 221.63l-1.81 7.41M550.43 215.84l-1.55 7.65M541.53 210.89l-1.78 7.61M530.78 214.67l-1.78 7.16M519.12 218.76l-.87 6.41M511.58 214.01l-1.16 6.49M501.82 217.08l-.35 6.62M490.92 220.5l-1.5 7.5M478.64 213.36l-1.42 7.44M466.53 206.31l-1.03 7.05M455.58 199.93l-1.28 7.33M444.79 193.66l-1.28 7.23M434.26 187.53l-1.51 7.01M423.92 181.51l-1.59 6.87M414.16 175.83l-1.46 6.86M443.42 136.83l-22.67 6.89 32.13 18.98"/><path class="cls-2" d="M442.35 140.66l-22.4 7.01 32.01 18.42"/><path class="cls-1" d="M419.25 151.17l-4.5 22 9.83 5.83 26.46-9.56-31.79-18.27 22.17-7.17 2-7.17-24.17-15.33 13.42-3 45.13 23.96"/><path class="cls-2" d="M420.75 143.72l-1.5 7.45M432.57 140.13l-.83 7M445.89 158.56l-1.75 6.91M436.15 152.81l-1.79 7.04M428.25 148.26l-1.32 7.32"/><path class="cls-2" d="M668.37 408.15L685.54 419l24.06-7.15a56.28 56.28 0 0 0 10 4.54 71.34 71.34 0 0 0 38.75 2.61L650 359.76" transform="translate(-159.98 -231.5)"/><path class="cls-2" d="M649.27 363l108.46 59.37S730 428 709.6 415l-24.48 7-17.79-10.11" transform="translate(-159.98 -231.5)"/><path class="cls-1" d="M597.25 193.5l-5.25 22-4 .5-6.75-4-17 6.5-18.75-9-28.5 10-17.57-11"/><path class="cls-2" d="M598.38 187.53l-1.13 5.97M517.16 182.36l-1.49 6.73M525.56 187.53L524.5 195M536.34 184.32l-.55 6.84M543.94 182.07l-.2 6.39M549.63 180.38l-.13 6.12-4 23M559.67 184.92l-.54 6.24"/><path class="cls-2" d="M730 419.24c.17 0-.49 5.77-.49 5.77l-5.27 25" transform="translate(-159.98 -231.5)"/><path class="cls-2" d="M582.67 189.09l-.46 5.45M591.25 188.68l-.71 5.56"/><path class="cls-2" d="M749.16 414c.05 0-.77 6.17-.77 6.17" transform="translate(-159.98 -231.5)"/><path class="cls-2" d="M579.91 177.44l-.62 6.27M558.95 165.98l-.37 6.33M547.81 159.89l-.77 6.24M537.57 154.3l-.55 6.37M527.33 148.71l-.69 6.3M518.17 143.7l-.27 6.55M508.63 138.49l-.59 6.38M499.34 133.41l-.55 6.42M541.96 332.62l45.8-19.95M534.82 335.74l4.75-2.07M528.02 338.7l4.65-2.03M518.04 343.05l3.77-1.65M574.58 327l4.34-2.28-1.34 4.45-4.16 2 1.16-4.17zM576.79 325.84l-1.02 4.2M580.96 307.51l4.34-2.28-1.34 4.45-4.16 2 1.16-4.17zM583.17 306.35l-1.02 4.2M562.58 315.64l4.34-2.28-1.34 4.45-4.16 2 1.16-4.17zM564.79 314.48l-1.02 4.2M547.33 322.57l4.34-2.28-1.34 4.44-4.16 2 1.16-4.16zM549.54 321.4l-1.02 4.21M555.26 336.37l4.33-2.28-1.33 4.45-4.17 2 1.17-4.17zM557.47 335.21l-1.03 4.2M520.63 352.16l4.33-2.29-1.33 4.45-4.17 2 1.17-4.16zM522.84 350.99l-1.03 4.21M555.83 300.69l4.34-2.28-1.34 4.45-4.16 2 1.16-4.17zM558.04 299.53l-1.02 4.2M569.08 294.89l4.34-2.28-1.34 4.45-4.16 2 1.16-4.17zM571.29 293.73l-1.02 4.2M588.28 286.21l4.33-2.28-1.33 4.45-4.17 2 1.17-4.17zM590.49 285.04l-1.03 4.21M595.58 264.2l4.34-2.28-1.34 4.45-4.16 2 1.16-4.17zM597.79 263.03l-1.02 4.21M575.92 272.78l4.33-2.28-1.33 4.45-4.17 2 1.17-4.17zM578.13 271.62l-1.03 4.2M562.83 277.58l4.34-2.28-1.34 4.45-4.16 2 1.16-4.17zM565.04 276.42l-1.02 4.2M582.78 250.54l4.33-2.28-1.33 4.45-4.17 2 1.17-4.17zM584.99 249.38l-1.03 4.2M604.73 243.47l-.65 2.17-4.16 2 1.16-4.16 1.43-.75M603.09 243.13l-.82 3.39M522.06 267.56l-9.6-5.6-23.99 8.98"/><path class="cls-1" d="M520.75 271.83l-9.17-5-26.27 10.86-2.06-25.02 27-9.84 16.67 9.17-6.17 19.83 34.36 21.14 7.47-24.14"/><path class="cls-2" d="M512.46 261.96l-.88 4.87M517.25 264.75l-1.1 4.57M506.49 264.2l-.39 4.9M500.17 266.65v4.73M493.82 269.1l-.24 5.17M439.5 269.1l40.06 23.05M438.25 272.35l39.06 23.14M467.26 285.07l-3.76 6.47M457.78 280.03l-3.59 6.05M443.99 271.69l-3.46 6.71"/><path class="cls-1" d="M557.53 393.5l7.51-29.83-23.91 11-14.88-9.84-10.51 32.81 14.93 9.27"/><path class="cls-1" d="M599.92 372.33l-80.46 40.17-4.99 15.25 2.78-1.12 4.56-12.38 40.32-20.62 6.25-.13-.63 5.38 8.88-4.38 1.75-7.5 6.12-3.12-1 7.25 8.88-4.25 1.5-7.5 5.5-2.63.54-4.42zM537.25 386.61l-3.71 1.51-78.99-49.42"/><path class="cls-2" d="M458.51 332.2l76.57 49.22 4.49-1.93M535.08 381.42l-1.54 6.7"/><path class="cls-2" d="M538.41 383.05l-4.02 1.4-76.66-48.39M525.76 375.42l-1.5 6.89M515.74 368.99l-1.27 7.2M504.67 361.87l-1.42 7.12M494.96 355.63l-1.21 7.6M484.97 349.2l-1.66 7.12M474.85 342.7l-1.65 7.67M464.87 336.28l-1.55 7.91"/><path class="cls-1" d="M725 595.17s-13.29-28.67-13.38-27.92-7.91 8.44-7.91 8.44l-2.62 30.48-10.47 32.24" transform="translate(-159.98 -231.5)"/><path class="cls-2" d="M523.39 324.72l70.43-30.56"/><path class="cls-1" d="M526.25 364.83l17.5-20.64-20.36-19.47"/><path class="cls-2" d="M592 215.5l45.64 24.67M425.01 125.16h6.41l36.51 20.03M452.44 173.99l3.51-14.99 13.18 7.75M460.45 199.61l-12.24-7.55 3.24-13.82M478.34 194.58l-3.49 13.92-11.86-7.32M471.68 168.25l11.57 6.79-3.81 15.17M466.61 187.48l-3.62 13.7M471.68 168.24l-3.94 14.94M464.06 185.93l-3.61 13.68M469.13 166.75l-3.93 14.9M467.74 183.18l11.7 7.03M452.44 173.99l12.76 7.66M466.61 187.48l11.56 7.06M451.45 178.24l12.61 7.69"/><path class="cls-1" d="M753.39 468.17c.54-.21 12-22 12-22l3.61-13.11" transform="translate(-159.98 -231.5)"/><path class="cls-1" d="M606.03 228.57l-.65-13.87-2.96 12.13"/><path class="cls-2" d="M762.39 431.62l13.09 7.07S770.35 440 766 438c-3.12-1.44-3.61-6.38-3.61-6.38zM761.14 435.86l13.08 7.06s-5.12 1.31-9.47-.69c-3.13-1.44-3.61-6.37-3.61-6.37z" transform="translate(-159.98 -231.5)"/><path class="cls-2" d="M760.08 438.65l13.09 7.06S768 447 763.7 445c-3.13-1.41-3.62-6.35-3.62-6.35z" transform="translate(-159.98 -231.5)"/><path class="cls-2" d="M615.5 207.19l-2.31 7.02M602.42 200.13l-2.31 7.02"/><path class="cls-1" d="M531.96 409.06l-3.08 11.07-2.63 1.12 2.86-10.73"/><path class="cls-1" d="M276.23 579l232.5 151.25s-14.5-.75-18.75 10.5L294.48 611s3.75-17.25-18.25-32z" transform="translate(-159.98 -231.5)"/><path class="cls-1" d="M155.88 373.28l-3.22 18.27M177.42 387.29l-3.2 18.57M193.27 397.6l-3.5 18.58M276.73 451.9l-3.7 19.54M293.31 462.68l-4.16 19.46M316.7 477.9l-3.89 19.94M427.62 460.73l12.23-5.89M392 477.9l32.72-15.77M116.25 347.5l1.19-8.62L349.72 491.9l-.97 6.85 39.94-19.25"/><path class="cls-1" d="M310.02 418.82l22.65 6.91v22.21l-22.65-7.32v-21.8zM409.31 395.04l-76.64 30.69M316.7 450.25l18.19 17.24-6.56 17.98-18.31-17.61 6.68-17.61zM404.69 419.1l14.68 13.91-6.56 17.98-84.48 34.48M316.7 450.25l10.31-4.14M334.89 467.49l84.48-34.48M330.92 368.99h20.33l3.83 22.51h-20.19l-3.97-22.51z"/><path class="cls-1" d="M298.58 413.17l56.5-21.67 81-28.75-3.83-22.51h-20.33l-81 28.75M351.25 368.99l81-28.75"/><path class="cls-1" d="M310.62 368.99h20.33l3.84 22.51H314.6l-3.98-22.51z"/><path class="cls-1" d="M317.45 366.56l-6.83 2.43-22.37 1.01 5.06 22.33 21.29-.83"/><path class="cls-1" d="M310.02 344l22.65-.83 3.41 22.7-21.5.8-4.56-22.67zM332.67 343.17l76.4-25.81"/><path class="cls-1" d="M336.08 365.87l76.4-25.81-3.41-22.7-22.66.83L310.02 344l-21.77.83 4.75 21.84h21.58"/><path class="cls-1" d="M283.58 320.33l21-2.97 4.5 22.88-20.33 2.39-5.17-22.3z"/><path class="cls-1" d="M309.08 340.24l78.23-24.59-4.5-22.88-21 2.98-78.23 24.58-21 3.17-21.33 2.83-20.83 3.66-21 4.01-19.5 4.88 5.16 22.86 19.17-6.07 21.63-3.84 20.37-3.16 21.67-2.84 20.83-3.2"/><path class="cls-1" d="M304.58 317.36l78.23-24.59 27.94-11.22M293.68 413.87l4.9-.7-5.27-20.84-63.56 6.17 5.03 17.68M240.31 419.83l15.27-.73 22-2.92 11.57-1.66M250.94 396.44l4.64 22.66M272.24 394.38l3.66 22.03M301.06 437.85l8.96 2.76"/><path class="cls-1" d="M332.67 447.94l76.64-30.69v-22.21l-22.66-6.92-76.63 30.7-20.87-6.32v21.67l5.7 1.76M372.07 385.47l14.58 2.65"/><path class="cls-1" d="M290.42 452.84l5.1-19.46 18.06 14.56-3.56 19.92-19.6-15.02zM313.58 447.94l9.12-3.22M295.52 366.84l-4.94 2.15-22.66 2.51-19.34 1.78-20.5 2.39-19.16 3.78 5 21.72 19.07-3.56 20.27-2.57 18.98-2.04 21.07-.67M248.58 373.28l4.68 21.76M228.08 375.67l4.9 21.93"/><path class="cls-1" d="M363.73 588.83l5.16 22.17c-5.76 1.13-20.83 8.67-20.83 8.67l-4-23.62s14.5-7 19.67-7.17l20.16-3.88 20.84-3.17 21.66-2.83 21.84-2.67 2.33 24.16" transform="translate(-159.98 -231.5)"/><path class="cls-1" d="M223.92 353.5l5.83 21.97M244.75 350.33l5.36 22.81M266.42 347.5l3.66 23.84M288.25 370l-20.33 1.5 4.32 21.5M159.08 364.49l16.74 12.85 8.26-20.34-15.16-12.17-9.84 19.66zM199.42 334l4.83 21.67M220.42 329.99l5.46 21.84M241.25 326.33l5 22.34M262.58 323.5l5.34 22.33M168.58 342.01l18.19-4.84 19.81-5.5 20.25-4.42 20.6-3.25 20.82-3.83 20.9-4-5.57-22.5-21 3.21-21.33 4.79-20 3.39-19.42 4.11-20.91 4.83-14.84 4.67-4 3.33 6.5 20.01z"/><path class="cls-1" d="M168.92 344.83l-9.84-15.5L144.92 344l10.96 19 7.62-7.33M180.92 314l5.85 23.17M201.83 309.17l4.75 22.5M226.83 327.25l-5.58-22.19 45.17-14.47"/><path class="cls-1" d="M247.43 324l-6.18-22.33 43.46-14.84"/><path class="cls-1" d="M268.25 320.17l-5.67-23.29 54.09-16.63"/><path class="cls-1" d="M283.58 293.67l78.34-22.73 6.16 21.83-78.93 23.4"/><path class="cls-1" d="M361.92 270.94L247.43 294.5l-81.35 24.17"/><path class="cls-1" d="M361.81 540.67c1.36-.29 45.6-14.67 45.6-14.67" transform="translate(-159.98 -231.5)"/><path class="cls-1" d="M135.16 338.16l-4.41-4.16 6.5-22.5 5.17 6.34-3.55 11.47"/><path class="cls-1" d="M136.58 328.67l10.67 3-5.33 21.83-8.17-6 2.83-18.83zM130.75 334l3.64 9.27"/><path class="cls-1" d="M137.25 311.5l91.33-63.33 9.67 21.16-91 62.34-5.37-12.1M238.25 269.33l77.5-14.33"/><path class="cls-1" d="M210 261.05l10.42 20.5 76.57-14.1"/><path class="cls-1" d="M192.19 273.41l9.64 20.26 76.98-14.16"/><path class="cls-1" d="M173.95 286.05l10.13 20.39 76.08-14.56L315.75 255l-9.5-19.67-77.67 12.84M155.64 298.75l10.44 19.92M262.98 242.48l26.64-43.31 14.3 14.84"/><path class="cls-1" d="M289.62 238.08l29.3-47.41 14.83 16"/><path class="cls-1" d="M310.3 243.72l26.45-42.16 15.33 16.27M311.69 281.28l43.56-67.93 14.33 15.15-30.15 47.07M364.19 278.97l31.89-11.07 14.67 13.65-10.96 26.98M385.3 305.4l18.35-6.37M386.96 313.86l42.79-16.98 14.67 9.56-34.63 15.75 34.63-12.75 16.83 9.23-3.82 18.83-23.94 10M461.25 318.67l-46.33 21.57M444.42 306.44v3M405.09 295.49l29.17-11.5M407.36 278.4l33.17-12.3M393.42 266.45l1.66 1.8"/><path class="cls-1" d="M355.25 213.35l70.18-23.14 12.65 14.71-27.27 40.27"/><path class="cls-1" d="M336.75 201.56l70.61-22.02 11.39 12.88"/><path class="cls-1" d="M289.62 199.17l29.3-8.5 70.33-20.49 11.8 11.33M346.73 274.06l-3.79-3.98 36.14-12.28 13.56 11.3.78-2.65 31.31-11.1 15.8 10.75-10.78 30.78"/><path class="cls-1" d="M376.58 258.65l1-3.23 32.17-11 14.98 10.93M377.58 255.42l11.47 10.69M343.09 232.31l14.71 14.59 68.25-24.21M330.59 251.8l15.33 13.64 67.24-23.71M316.66 273.52l6.24 5.45M324.67 220.82l15.63 15.85M312.53 240.17l15.16 16.16M303.92 262.85l11.77 12.19M284.71 286.83l14.3-20.72M290.14 278.97l6.85 5.33M307.34 209.4l14.55 15.86M295.39 228.75l7.39 7.16M277.83 218.35l14.83 14.82"/><path class="cls-1" d="M426.54 468.17c0-.05 4.38 4.5 4.38 4.5" transform="translate(-159.98 -231.5)"/><path class="cls-1" d="M401.18 375.14l37.32 24.24L423.25 449"/><path class="cls-1" d="M424.47 445.03l17.41 11.1 66.12-33.1 6.47-21.78-16.64-9.75-66.6 31.53 17.15 10.6 66.09-32.38"/><path class="cls-1" d="M547.42 713.71l-38.69 18.54s-14.22-.94-16.74 9.91" transform="translate(-159.98 -231.5)"/><path class="cls-1" d="M423.57 464.9l-32.7 15.67M448.38 433.63l-6.5 22.5-15.41 7.38M438.5 399.38l65.46-29.77-6.13 21.89M487.07 359.05l-65.9 29.07-11.86 35.35M470.69 348.8l-67.11 27.9-5.15 15.02M409.31 407.33l22.22 14.73M424.88 443.71l-7.61-4.95"/><path class="cls-2" d="M185.94 375.47l10.81-5.47 9.34-2.65"/><path class="cls-3" d="M212.63 389.38l15.45-2.74M218.5 394.38l12.03-2.05M232.5 386.13l16.08-2.13M252.75 383.5l15.17-1.08M271.75 382.42l16.5-1.42M292.75 381l17.87-.76M314.38 380.24h16.54M334.89 380.24l17.03-.4M229.39 381.5l12.61-1.66M246.25 390l5.8-.62M254.13 388.01l13-.72M260.33 378.75l6.8-.56M272.24 376.7l13.51-1.03M279.33 387.08l7.92-.44M291.88 375.47l15.25-.72M299.5 386.13l9.96-.42M313.58 374.75h6.55M320.13 385.06H330M336.54 384.5h10.04M336.08 373.75h12.67M187.75 368.99l8.27-4.5 3.4-.74M208 367.35l16.52-2.86M228.08 363.75l16.67-2.66M249.15 360.38l16.1-1.88M270.63 358.5l16.62-1.37M293.25 357.13l16.77-.88M314.38 355.67l17.5-1.06M207.5 362.42l10.38-2.04M216.26 371.41l9.35-1.41M227.38 358.5l9.95-1.81M232.98 368.13l11.77-1.76M252.05 354.61l12.68-1.11M252.05 365.92l9.7-.92M271.75 364.49l16.5-1.49M275.9 351.83l9.85-.83M291.88 351l11.87-.67M299.5 361.74l9.58-.34M314.38 349.63l10.68-.46M319.72 360.38l11.2-.55M183.84 349.63l15.58-4.25M204.21 344.83l16.73-3.75M225.88 340.24l15.37-2.74M245.75 337.17l17.23-2.5M267.13 334l16.49-2.33M288.25 330.88l16.33-2.21M183.25 343.75l12.77-3.51M192.75 353.5l8.5-2.5M204.88 350.33l12.5-2.83M207.5 337.5l9.25-1.58M226.83 346.17l13.71-2.42M229.75 334.67l10.13-1.84M244.75 331.67l10.83-1.41M254.88 340.91l6.87-1.16M266.42 328.67l12.39-1.42M272.61 339.75l10.06-1.58M286.75 325.17l11.06-1.17M294.17 335.92l9.58-1.25M168.92 370l6.96-16.5M164.88 365l4.04-9.33M173.95 367.35l4.55-10.66M151.75 351.83l10.88-10.75M149.88 346.46l5.76-5.38M156.92 354.61l3.94-4.98M166.9 330.26l14.48-3.93M171.58 334.67l8.34-2.29M164.88 325.17l16.04-4.75M184.63 318.67l7-1.92M185.38 324.58l16.45-4.41M191.63 327.96l11.75-3.13M204.88 314l11.38-2.5M205.5 319.5l16.38-3.33M212.13 323.5l11.02-2.25M226.83 320.42l13.71-2.58M225.88 315.63l16.12-2.88M232.98 308.92l8.27-1.42M246.25 312.17l16.73-3.25M252.08 316.17L263.5 314M246.25 307.5l10.17-2.09M266.75 308.21l17.58-2.8M267.13 303.92l16.04-2.75M270.58 312.17l8.23-1.09M143.83 320.17l14.59-10.34M151.13 321.25l9.73-6.75M142.42 314.19l9.08-6.69M162.08 307.5l15-10.5M160.58 301.83l9.42-6.5M166.9 309.83l10.18-7.08M180.58 294.8l13.84-9.55M178.83 289.33l9.3-6.41M185 297.92l11.75-8M198.5 282.08l14.42-9.91M203.83 286.13l11.17-7.96M197.92 275.83l9.33-6.5M216.67 269.92l14.5-9.75M222.83 272.92l10.86-7.5M215 265.42l7.83-5.25M433.5 449l5.83-18.67M437.67 450l3.33-11.24M431.25 439.04l3.58-10.5M255 401.17l1.9-3.17h3.73l2.62 16.52h-3.75l-2.6-2.01-1.9-11.34zM275.9 405.39l18.6-2.89M280.83 409.75l9.75-1.5M275.9 399.33l11.93-1.73M314.76 460.75L329.33 475M322.04 461.17l6.29 6.7"/><path class="cls-3" d="M473.56 696.5l9.12 9.11" transform="translate(-159.98 -231.5)"/><path class="cls-3" d="M311.75 430.25l19.42 6.75M315.17 437l10.75 3.61M313.08 425.73l12.11 4.02M339.33 256.33l9.25-13.85M351.42 237.42l8.91-14.34M364.75 227.08l-6.5 11M349.67 231.58l4.83-8.08M340.3 246.9l5.62-8.4"/><path class="cls-3" d="M510.73 480.17c-.25.33-6.8 10.41-6.8 10.41M487.66 506.17c.07-.34 8.34-13.17 8.34-13.17M494.31 504c.25-.33 5.5-8.67 5.5-8.67" transform="translate(-159.98 -231.5)"/><path class="cls-3" d="M329.17 264.83l3.75-5.75"/><path class="cls-3" d="M459 514c0-.25 8.65-13.17 8.65-13.17" transform="translate(-159.98 -231.5)"/><path class="cls-3" d="M299.01 274.67l3.91-5.72"/><path class="cls-3" d="M470.28 506.17c-.14.41-4.22 6.25-4.22 6.25" transform="translate(-159.98 -231.5)"/><path class="cls-3" d="M320.75 246.17l9.84-15.25"/><path class="cls-3" d="M481.48 467.41c.16-.58 5.41-8 5.41-8" transform="translate(-159.98 -231.5)"/><path class="cls-3" d="M331.84 238.5l-7.17 10.91M332.92 227.08l10.02-15.66M338.58 227.92l5.38-7.75M331.84 220.17l4.91-7.84"/><path class="cls-3" d="M472.51 495.33c0-.33 6.88-11.25 6.88-11.25" transform="translate(-159.98 -231.5)"/><path class="cls-3" d="M304.33 233.83l8.59-13.66M309.8 233.83l6.62-10.33M301.42 229.92l4.33-6.42M315.75 215.42l9.33-14.75M321.89 214.37l6.36-9.79M315.33 208.58l6.92-11.16M285.92 224.04l9.47-15.46M292.66 223.75l6.92-11.42M282.58 219.25l7.42-12M276 239.5l7.92-11.58M271.83 236.67l6-8.75M283.92 236.67l3.41-5.75"/><path class="cls-1" d="M714.63 303.88l21.5-55.5 14.5 8.37-21.88 56-14.12-8.87zM750.63 256.75l42-19.75"/><path class="cls-1" d="M714.63 303.88l-15.57-9.08 22.07-55.3 15 8.88L779 229.25l13.63 7.75-20.88 54.75-43 21-5.5 11.69-14.12-8.17 5.5-12.39z"/><path class="cls-1" d="M721.13 239.5l44-17.75 13.87 7.5"/><path class="cls-1" d="M719.22 244.29l-15.68-8.66 43.96-18.5 11.94 6.91M690.24 270.5l15.18 8.37M696.81 253.27l15.2 9.08M642.63 322.25l12.12-34.87 23.5-10.13 15.13 7.75-11.5 34.38L658 331.13l-15.37-8.88z"/><path class="cls-1" d="M830.23 527.5c1.12 0 23.12-11 23.12-11" transform="translate(-159.98 -231.5)"/><path class="cls-1" d="M613.03 218.25l47.89-18.12 16 8.37-44.5 118.23-30.21 13.93M616.06 247.31l-31.7 88.75M669.58 228l-24.83 10.48"/><path class="cls-1" d="M662.22 247.54l-54.52 23.4-5.28-3.04M619.37 248.43l-4.11 1.11-6.06-2.37M595.93 287.71l4.28 2.79 54.17-22.13M589.46 307.49l3.95 3.24 53.82-23.35M583.53 325.61l3.58 2.25 53.79-23.67M597.25 209.09l47.5-18.46 16.17 9.5M659.53 254.71l10.05-4.04 14.84 8.36-6.17 18.22M648.53 283.93l6.22 3.45M641.87 301.63l22.33 11.73 23.61-11.73M635.45 318.68l7.18 3.57M833.08 169.5l15.34-37.83 54.5 32L870.08 242l-3.73-2.33"/><path class="cls-1" d="M1008.39 363.17c1.67-.67 34.84-13 34.84-13l51.66 31.16-30.83 76.67h-7l-27 15.5" transform="translate(-159.98 -231.5)"/><path class="cls-1" d="M872.64 223.29l4.26 2.44 33.63-15.25M835.75 162.93l54.4 31.2 32.88-14.75M917.4 193.39l-33.31 15.18-4.7-2.34"/><path class="cls-1" d="M921.53 141.76l-32.41 13.8-15.24 37.42M908.04 133.62l-32.9 13.74-15.18 37.7M894.07 125.19l-32.66 14.11-15.16 37.96M902.92 163.67l32-13.84"/><path class="cls-1" d="M808.05 253.94l19.87 10.56 35.66-17.62 18.84-49.05-54.5-31-37.34 14.84-2.33 8.32M846.92 213.83l35.5-16"/><path class="cls-1" d="M876.53 213.17l-35.4 16.08-19.98-10.5M814.32 237.09l20.21 9.79 35.26-16.17"/><path class="cls-1" d="M869.12 190.27l-36.04 15.56-19.74 50.92M854.91 182.19l-36.16 15.64-1.98 7.08M841.23 174.41l-36.47 15.35-2.48 7.57M712.7 109.36L726 73l39.5 19.13-14.34 38.12"/><path class="cls-1" d="M886 304.5c2.75-1.5 38-11 38-11l35.5 18.25-27.76 81.4" transform="translate(-159.98 -231.5)"/><path class="cls-1" d="M765.5 92.13l34-11.88 2.25-6.59 29-10.83 24 11.67-15.83 39.5"/><path class="cls-1" d="M786.67 73.66l-34.89 11.82L738 123.15"/><path class="cls-1" d="M774.84 67.57l-36.09 11.6-13.77 36.86"/><path class="cls-1" d="M720.66 87.6l38.83 20.49 34.6-11.98"/><path class="cls-1" d="M715.09 102.82l38.74 20.33 35.16-12.07"/><path class="cls-1" d="M943.53 358.52c-.09.26-26.77 9.19-26.77 9.19" transform="translate(-159.98 -231.5)"/><path class="cls-1" d="M778.24 142.58l-7.86 2.8M766.42 158.77l7.29-2.89 12.21 7.05 8.17-20.35 36.16-13.08 15.67 8.34M369.58 228.5l68.5-23.58M741.38 208.53l1.12-4.89 41.05-16.11 41.2 21.56-19.5 52.36-26.54 12.04-42.52 20.21-14.55-7.94-15.36-9.05"/><path class="cls-1" d="M742.5 203.64l42.95 21.7-1.54 6.7M785.45 225.34l39.3-16.25"/><path class="cls-1" d="M797.04 194.59l-41 15.89-2.15 10.35M809.99 201.36l-38.36 16.48-1.39 6.68M818.55 225.73L792.63 237M811.64 244.29l-26.19 11.53-41.81 18.81-14.66-7.81-15.05-9.3M627.25 197.43l16.33-46.1 45.5-15L732.92 159l-20.08 54.24"/><path class="cls-1" d="M732.92 159l-44.67 16.92-44.67-24.59"/><path class="cls-1" d="M688.25 175.92l-11.33 32.58-47.1 19.5"/><path class="cls-1" d="M636.93 170.11l44.82 24.48 44.25-16.9M674.77 214.21l44.11-17.27M668.55 230.72l65.37-25.8 14.33 6.92-.75 5.29M692.44 287.78l7.64 4.45"/><path class="cls-1" d="M748.25 211.84l-42.83 18.87-1.88 4.92-17.41 45.66"/><path class="cls-1" d="M839.5 481s9.23-25.71 9.34-26.84l16.55 8" transform="translate(-159.98 -231.5)"/><path class="cls-1" d="M664.62 241.17l21.63 12.41-1.83 5.45-23 10.8M671.62 245.18l-10.2 4.5M686.25 253.58l-6.17 3M718.09 151.33l-44.89 16.3-11.23 33.05"/><path class="cls-1" d="M703.54 143.81l-45.15 15.67-11.62 32.33M756.09 137.76l1.28-4.14-51.79-28.12-38.83 13.17-1.32 4.71"/><path class="cls-1" d="M666.75 118.67l53 28.33-.97 4.69M719.75 147l37.62-13.38"/><path class="cls-1" d="M718.09 112.29l-38.01 12.9-1.42 5.03M731.67 119.67l-38.42 13.16-1.05 5.12M744.51 126.64l-37.27 13.67-1.04 4.87"/><path class="cls-1" d="M684.33 137.9l.92-4.28-27-13.95-43.43 13.95-1.74 5.71"/><path class="cls-1" d="M614.82 133.62l26.93 14.16-7.83 25.72M641.75 147.78l43.5-14.16"/><path class="cls-1" d="M670.57 126.03l-42.29 14.28-10.03 27.9"/><path class="cls-1" d="M614.83 154.31l21.78 10.35 2.53-.8M727.92 172.5l38.5-13.73 12.66 6.86-5.37 15.37-39.13 14.38"/><path class="cls-1" d="M727.22 174.41l12.7 5.92-9 25.5M754.13 188.2l11.37 6.39M773.71 181l11.74 5.83-1.9.7M827.92 264.5l19-50.67-56.34-32.16 2.5-8.84-14-7.2 19.17-7.58 12.83 7.24-2.22 9.12M793.08 172.83l18-7.54"/><path class="cls-1" d="M721.78 189.09l12.8 6.29 12.2 6.58M717.02 201.96l9.84 5.75M794.09 142.58l27.99 13.3-5.35 15.4M822.08 155.88l19.8-8.1 55 30.3 32.48-14.43"/><path class="cls-1" d="M842.3 135.91l-34.21 13.32-4.48 11.85M809.85 170.23l4.2 2.11M787.5 158.98l3.7 1.86M801.75 73.66l25.17 12.67-13.23 36.72M826.92 86.33l27.83-11.83"/><path class="cls-1" d="M796.49 89.08l24.66 13.25 27.27-12.03M791.1 104.89l24.59 12.6 26.61-11.93"/><path class="cls-1" d="M842.3 68.45l-27.97 11.54-13.39 35.66M887.51 105.25l7.91-16.83 49.5 24.25-14.87 34.23"/><path class="cls-1" d="M895.42 88.42l26.83-13.92 48 24.92-20.33 42.34-15.73 9.88"/><path class="cls-1" d="M932.83 80l-25.66 14.17-6.89 15.17"/><path class="cls-1" d="M888.88 102.33l49.92 24.43 24.9-13.69M899.48 125.63l32.81 16.13 23.92-13.11"/><path class="cls-1" d="M954.76 131.67l4.66 3.5 34.16-43.34-33.33-26.16-15.33 20.6-24.84 14.23-14.21 31.81M1010.25 81.17l-16.67 10.66"/><path class="cls-1" d="M998.91 72.01l-16.79 10.82-11.87 16.59-25.33 13.25M988.11 63.3l-17.03 10.36-13.83 19.31-24.42 13.78-13.91 33.43"/><path class="cls-1" d="M951.71 77.14l33.59 25.19 16.41-9.99M966.96 106.27l9.75 6.96 15.88-8.97M961.01 118.67l7.3 5.21 15.88-8.63M917.25 28.5l22.67 10.83-14.96 36.58M939.92 39.33l23-9"/><path class="cls-1" d="M951.71 24.95l-23.13 8.97-13.47 32.94"/><path class="cls-1" d="M958.89 42.69l4.03-12.36-21.84-10.5-23.83 8.67-16.67 39.95"/><path class="cls-1" d="M911.75 41.69l22.54 11.4 17.42-6.46M905.49 56.7l22.98 10.63 17.66-6.44M937.6 82.47L952.42 45l24.29-8.67 57.21 26.97-13.04 33.23"/><path class="cls-1" d="M1007.27 85.19l-18.19 43.57 11.78 6.28M984.59 60.45l27.49 13.21-2.77 6.65M952.42 45l23.86 11.46M1012.08 73.65l21.84-10.35M987.33 41.34l-22.82 9.47-8.98 21.2M998.91 46.8l-19.48 9.49M1010.25 52.14L988.11 63.3M1028.49 77.14l-22.12 10.2"/><path class="cls-1" d="M1022.73 91.83l-22.37 9.91-4.11-1.32M946.75 59.33l13.5 6.34 18-10.34 32 25.84-33.67 44.02-17.16 9.98M941.09 73.65l9.99 4.34M931.22 79.16l8.97-3.25M834.74 64.77l1.14-4.39 27.62-10 48.25 24.12-2.35 6.67"/><path class="cls-1" d="M835.88 60.38l49.75 24.37-5.5 12.28M850.49 85.12l28.15 13.76M885.62 84.75l26.13-10.25"/><path class="cls-1" d="M900.58 68.45l-26.85 10.47-9.54 22.83M886.75 62l-26 10.56-15.56 37.58M874.6 55.92l-26.18 10.6-1.29 3.98M844.75 100.42l9.51 4.83M880.62 58.93l7.21-2.26 10.75 4.83-2.06 5.38M898.58 61.5l-6.6 3.12M901.45 69.35l10.3-4.1 10.92 5.25-1.31 4.46M922.67 70.5l-11.53 5.74M791.72 148.49L778.78 141l34.8-12.75 8.88 4.07M754.43 188.31l5.67-15.97-13.22-6.6-12.71-6.97 5.41-14.96 18.25-6.68 13.1 6.68-5.43 15.29"/><path class="cls-1" d="M739.58 143.81l12.97 6.52-5.67 15.41M752.55 150.33l18.38-6.52M728.91 156.93l6.7-2.16M739.92 180.33l39.16-14.69M785.3 188.44l.15-1.61 3.23 1.61M787.08 116.66l9.41-3.59 23.39 13.57-.76 4.14M819.88 126.64l-5.55 1.95M808.09 119.8l-25.08 8.79M819.88 131.13l2.57-10.96 34.13-12.08 11.92 5.41-2.37 11.54"/><path class="cls-1" d="M868.5 113.5l-32.75 13.14-1.08 5.43M835.75 126.64l-13.3-6.47"/><path class="cls-1" d="M834.43 115.93L856.58 104l28-8.29 4.3 14.12-22.5 14.01M884.58 95.71l-22.93 14.68M869.99 100.03l-12.56 8.44M860.75 102.77l-11.25 7.62M885.95 111.66l16.52-2.68 4.03 11.19-9.42 6.84M902.47 108.98l-17.89 10.49M888.84 111.19l-16.66 11.6M1029.86 73.66l10.06 3.87-10.06 23.3M1039.92 77.53l-13.76 5.55"/><path class="cls-1" d="M1181.36 326.75l13.26-5.51s22.61 8.72 20.11 22l-7.88 18" transform="translate(-159.98 -231.5)"/><path class="cls-1" d="M1000.86 135.04l9.14-22.37 23.17-11.84 10.75 5.09-9.45 23.13-22.39 11.89-11.22-5.9z"/><path class="cls-1" d="M1203.89 337.42c-.75.25-22.16 12.54-22.16 12.54l-11.73-5.79" transform="translate(-159.98 -231.5)"/><path class="cls-1" d="M1021.75 118.46l-9.67 22.48M1009.49 113.5l-11.37-6.39 22.76-10.58 10.51 5.21M987.9 110.39l7.73 2.68"/><path class="cls-1" d="M1153.56 349.48l11.84 5.88 11.68 5.41s21.65-10.69 21.69-10.81" transform="translate(-159.98 -231.5)"/><path class="cls-1" d="M980.24 120.41l10.62 4.1M929.9 162.31l9.35-1.23 9.63 10.17-3.47 5.98"/><path class="cls-1" d="M948.88 171.25l-16.5 3.16-5.79 10.19M927.4 168.53l4.97 5.88"/><path class="cls-1" d="M939.92 180.65l-11.96 1.54-4.45-4M921.91 182.19l28.47 14.69-5 13.6-12.44 3.35-3.58 4.27-11.96 3.11-9.36-4.56"/><path class="cls-1" d="M913.53 203.01l8.6 4.12 28.25-10.25M922.12 207.13l-4.72 14.08M916.29 196.14l18.63-7.24 4.47-4.27 5.53-8.25 6.83 11.87-6.71 5.88"/><path class="cls-1" d="M944.92 176.38l-6.79 5.81-8.92 3.76M947.19 180.33l2.53-.7 11.29 5.5-14.81 9.59M553.83 169.83l3.59-19.58L605 135.17l12.92 6.75-5.84 23.37"/><path class="cls-1" d="M613.19 159.9l-44.28 15.14-14.49-8.45"/><path class="cls-1" d="M717.39 381.75c1.84.63 14.54 8 14.54 8l46-16.33" transform="translate(-159.98 -231.5)"/><path class="cls-1" d="M571.95 158.25l-2.81 19.93.64-6.28M580.42 184.32l45.25-15.17 9.64 5.54"/><path class="cls-1" d="M794.05 409.68c-.41-.18-38.66 13.88-38.66 13.88" transform="translate(-159.98 -231.5)"/><path class="cls-1" d="M597.25 194.59l7.67 4.41 25.29-9.91 7.43 4.3M595.04 202.74l9.88-3.74M619.37 193.5l6.87 4.32"/><path class="cls-1" d="M781.36 402.08l-10.47-5.92c-.83-.08-40.37 14.28-40.37 14.28" transform="translate(-159.98 -231.5)"/><path class="cls-1" d="M589.65 172.05l10.33 5.71"/><path class="cls-1" d="M286.26 596.18l4.83-1.68M278.47 598.87L281 598M270.48 601.5c.45-.12 1.31-.4 2.44-.77" transform="translate(-159.98 -231.5)"/><ellipse class="cls-1" cx="281.35" cy="603.14" rx="1.64" ry="3.21" transform="rotate(-85.44 75.985 574)"/><path class="cls-1" d="M283.34 605.85c0 .62-1.07 1-2.28.95s-2.15-.68-2.1-1.3M283.34 605.85s-.28-1.32.7-1.67M278.26 603.39s1.39 1.28.7 2.11" transform="translate(-159.98 -231.5)"/><ellipse class="cls-1" cx="283.34" cy="596.69" rx="1.64" ry="3.21" transform="rotate(-85.44 77.97 567.548)"/><path class="cls-1" d="M285.32 599.4c0 .61-1.06 1-2.27.94s-2.15-.67-2.1-1.29M285.32 599.4s-.27-1.33.71-1.67M280.25 596.94s1.39 1.28.7 2.11" transform="translate(-159.98 -231.5)"/><ellipse class="cls-1" cx="275.32" cy="598.39" rx="1.64" ry="3.21" transform="rotate(-85.44 69.949 569.25)"/><path class="cls-1" d="M277.31 601.1c-.05.62-1.07 1-2.28.95s-2.15-.68-2.1-1.3M277.31 601.1s-.28-1.32.7-1.67M272.23 598.64s1.39 1.28.7 2.11" transform="translate(-159.98 -231.5)"/><path class="cls-1" d="M215.64 412.16l-2.95 19.23M213.43 410.72l-3.31 18.97M237.44 426.34l-3.34 19.26M235.4 425.01l-3.44 19.17M255.58 438.81l-2.32 19.51M253.83 437l-2.34 20.14M255 451.9l4.13-1.65 6.95 4.58-4.58 1.67-6.5-4.6zM261.5 456.5l-.38 7.03M266.08 454.83l-.28 11.81M154.27 396.44l.61-8.79 7 4.4 5.62-2.05-6.62-4.5-6 2.15M161.88 392.05l-.5 9.12M167.5 390l-.6 11"/><path class="cls-2" d="M287.51 589.12l-14.83 4.4L503 745.38l657.85-336.5s53.89-30.24 63.27-50.62" transform="translate(-159.98 -231.5)"/><path class="cls-2" d="M289.84 592.37l-16.72 5 229 152.74 664.61-340.61s39.49-23.75 49.74-36.41" transform="translate(-159.98 -231.5)"/><path class="cls-2" d="M112.7 362.02l.88 8.54M122.65 359.07v4.48"/><path class="cls-2" d="M286.26 602.47c.24.16-.23 6.7-.23 6.7M298.15 610.32c.12.07-.51 6.68-.51 6.68" transform="translate(-159.98 -231.5)"/><path class="cls-2" d="M148.62 385.7l-.62 6.72M159.9 393.14l-.4 6.19M171.58 400.85v6.73M185.94 410.31l-.69 6.27M198.19 418.39l-.44 6.19"/><path class="cls-2" d="M371.75 658.85c.05 0-.44 6.07-.44 6.07M383.88 666.85c.23.15-.9 5.23-.9 5.23" transform="translate(-159.98 -231.5)"/><path class="cls-2" d="M238.11 444.71l-.67 5.91M250.4 452.82l-.73 5.5"/><path class="cls-2" d="M423.8 693.17c.35.23-.66 6.19-.66 6.19" transform="translate(-159.98 -231.5)"/><path class="cls-2" d="M275.2 469.17l-.7 5.83M288.44 477.9l-1.02 5.68"/><path class="cls-2" d="M461 717.72c.14.1-.73 5.95-.73 5.95" transform="translate(-159.98 -231.5)"/><path class="cls-2" d="M314.76 495.25l-.59 6.25M327.64 503.75l-.63 6.42M343 513.88l-1.25 6.45M357.78 506.31l-.7 5.77M370.79 499.66l-.54 5.84M394.48 487.54l-.4 5.46M404.17 482.59v5.24M414.09 477.51v5.08M424.01 472.44l-.26 5.07M432.93 467.87v5.38M441.88 463.3v5.45M451.62 458.32v5.26M461.24 453.39v5.36M469.83 449v5.25M479.22 444.2v5.3M488.68 439.36v5.52M497.34 434.93v5.32M506.03 430.48v5.19M519.73 423.47l-.48 5.07M531.96 417.22v5.53M544.32 410.9v5.6M556.22 404.81v5.57M566.27 399.67v5.14M578.92 393.2v5.43M591.16 386.94v5.44M601.21 381.8v5.14M610.42 377.09v5.22M619.22 372.59V378M629.33 367.41v5.18M639.04 362.45v4.96M648.64 357.54v4.91M657.33 353.09v5.54M666.01 348.65v5.23M674.74 344.19v5.19M684.08 339.41v4.78M693.38 334.66v5.17M701.93 330.28v5.05M709.79 326.26v4.87M717.63 322.25v5M725.62 318.16v4.92M734.02 313.87v4.81M741.81 309.88v5.2M749.11 306.14v5.11M757.47 301.87v5.21M765.51 297.76v5.32M774.2 293.31v5.56M781.66 289.5v5.33M790.12 285.17v5.33M798.25 281.01v5.24M807.38 276.34v5.24M815.67 272.1v4.98M823.24 268.23v5.02M831.14 264.19v4.98M840.72 259.28v5.22M849.68 254.7v5.22M858.38 250.26v4.82M866.77 245.96v4.79M874.52 242v4.88M882.42 237.96v4.71M890.06 234.05v4.74M897.7 230.14v5.03M905.49 226.16v5.21M912.59 222.52v5.06M920.49 218.48v5.03M929.36 213.95v5.22M937.06 210.01v4.82M944.28 206.31v5.44M952.05 202.34v4.79M958.45 199.07V204M964.82 195.81v5.17M972.12 192.07v4.81M979.39 188.36v5.03M986.65 184.64v4.86M994.02 180.87v5.08M1000.86 177.38v4.81M1008.8 172.71v5.48M1015.58 168.53v5.39M1023.11 163.67v5.5M1029.54 159.32v5.18M1035.08 155.38v5.12M1040.75 151.14V156M1046.08 146.88v4.26M1050.58 143v4.54M1055.85 137.93v4.44M1059.54 133.79v2.98"/><path class="cls-1" d="M949.92 141.76l10.33 5.12-23.75 13.35-4.85-2.29"/><path class="cls-1" d="M1099.23 392.58c1.12-.7 21.75-12.59 21.75-12.59l39.85 19.45-20.61 14.25-37.87-17.81" transform="translate(-159.98 -231.5)"/><path class="cls-1" d="M980.24 182.19v2.94l20.62-14.25v-2.94M980.24 185.13l-32.95-15.55"/><path class="cls-1" d="M1126.37 376l-4.61 2.76v1.63" transform="translate(-159.98 -231.5)"/><path class="cls-1" d="M1121.76 378.74l41 19.28 20.62-14.25-38.53-18.77-2.26 1.35" transform="translate(-159.98 -231.5)"/><path class="cls-1" d="M1002.78 166.52v2.94l20.61-14.25v-2.94M1002.78 169.46l-1.93-.91M961.79 136.25l8.96 9.58 12-10.79-9.29-8.03-11.67 9.24zM977.88 130.83l-11.7 10.11"/><path class="cls-1" d="M961.79 136.25l-.78 2.33 8.07 8.84 1.67-1.59"/><path class="cls-1" d="M1195.3 319.66s23.68 7.46 21.68 24l-8.13 18.64-12.9-5.44" transform="translate(-159.98 -231.5)"/><path class="cls-1" d="M689.53 296.48l21.22 12.96-49.33 23.37-3.42-1.68L670.25 296l-15.5-8.62 6.67-17.55-6.38-3.21"/><path class="cls-1" d="M710.75 309.44l-.96 3.04-48.37 22.85-26.7-14.71M661.42 332.81v15.08M699.06 294.8l-2.18 6.17M716.32 304.94L711.31 317M727.38 311.89l-5.69 11.65M701.12 296l-2.38 6.1M697.97 291.31l-3.14 8.41M696.44 318.79l-.67 12.1"/><path class="cls-1" d="M709.79 312.48l-1.68 12.3-46.69 23.11-27.5-17.15 1.53-9.72M681.31 325.93v12.11M682.75 325.26v11.98M697.97 318.16l-.63 11.95"/><path class="cls-1" d="M759 568.81s7.5 5.46 3.25 10.58c-4.12 5-24.1 13.8-36.07 7.3a4 4 0 0 1-1.86-2.08c-.84-2.28-1.28-7 6.34-11.31 10.57-6.05 21.69-8.93 28.34-4.49z" transform="translate(-159.98 -231.5)"/><path class="cls-1" d="M763.36 577.25s-2.32 9.87-12.23 13.63-19.69 3.2-24.24.87-2.89-10.87-2.89-10.87M749.84 591.75c.39.25 5.65 14.28 5.65 14.28" transform="translate(-159.98 -231.5)"/><path class="cls-1" d="M592.61 358.75l5.81 14.33M563.72 370l6.55 16.94"/><path class="cls-1" d="M722.28 606c-.13.51 4.69 13.59 4.69 13.59M730.64 614.5c.09-.38.63-4.53.63-4.53l4.87-2.28 1.46.9 1.29 5.22" transform="translate(-159.98 -231.5)"/><path class="cls-1" d="M571.29 378.47l1.46 1.12 1.5 5.18M586.13 376.19l.98-5.44 3.38-1.76 2.12 1.01 1.77 4.53"/><path class="cls-1" d="M587.11 370.75l2.35 1.58 1.03 4.71"/><path class="cls-1" d="M724.25 598.2c.08-.3 10.52-4.6 10.52-4.6" transform="translate(-159.98 -231.5)"/><path class="cls-1" d="M563.88 368.99l15.92-6.89M564.28 371.45l17.87-7.78M582.15 361.7l.51 4.22M572.77 362.93l.44 7.07M566.99 365.39l.93 6.94"/><path class="cls-1" d="M706 633.37l-1.68 7.19s-9.78 5.09-9.24 4.64 2.17-7.35 2.17-7.35" transform="translate(-159.98 -231.5)"/><path class="cls-1" d="M541.37 404.24l-.98 6.85M562.13 393.63l-1.38 6.41-3.28 1.34 1.17-5.97M434.64 282.9l106.49 63.63M432.96 287.72l105.02 63.27M522.92 326.73l19.5 19.02M550.46 337.31l-24.7-13.62-2.37 1.03 25.64 14.13M543.75 373.46l1.38-12.79 10.25-4.35-3 12.67"/><path class="cls-1" d="M691.38 590.25c.28-.33 10.43 6.14 10.43 6.14" transform="translate(-159.98 -231.5)"/><path class="cls-1" d="M508.88 373.08L504.67 389l-5.1-3.71"/><path class="cls-1" d="M664.65 620.5c1.83-1.12 16.39-8 16.39-8M1106.2 439.66l38.78-19.8s54.75-25.82 63.87-57.53" transform="translate(-159.98 -231.5)"/><path class="cls-1" d="M330 509.25l11.26 7.85 582.79-297.62M409.31 452.42l-5.14 15.46 1.71.87 5.87-17.12"/><path class="cls-1" d="M411.33 452.86l13.55 8.89-5.51 13.25 1.7 1.35 6.56-15.6-14.82-9.76"/><path class="cls-2" d="M382.73 493.55v5.2"/><path class="cls-1" d="M374.91 466.46L392 477.9l-7.19 16.97-2.08-1.32"/><path class="cls-1" d="M382.73 493.55l5.9-14.17-13.72-9.83-5.16 14.03-1.5-1.44 5.07-15.03"/><path class="cls-1" d="M427.1 649.07l16.17 13.82h-13.54l-6.22 3.21-10.27-9.59-4.12-.43c.36-.7 6.44-5.48 6.44-5.48" transform="translate(-159.98 -231.5)"/><path class="cls-1" d="M283.29 431.39l5.86-2.14"/><path class="cls-1" d="M452.94 666.85l.34 6.46-12.47 10.47-6.76-10.21-9.35-6.16c.26.17 5.9-2.29 5.9-2.29l18.52.55" transform="translate(-159.98 -231.5)"/><path class="cls-1" d="M348.75 498.75v2M649.32 340.35l-53.8 25.19M596.36 368l55.28-26.21-1.6 17.63M649.32 342.89l-.92 17.36M624 354.9l-1.46 18.56M621.97 355.86l-1.52 18.67"/><path class="cls-1" d="M643.23 369.67c.55-.18 15.53-50.5 15.53-50.5l-10.54 48.66" transform="translate(-159.98 -231.5)"/><path class="cls-2" d="M493.1 96.42l-12.42 42.61M490.56 105.14l3.91 2.45M489.84 107.59l3.92 3.26 9.24-4.22-7.96-1.68-6.16-3.82 12-2.63-9.86-1.37 17.02-5.75-15.04-2.5 4.49 3.12M488.88 110.91l4.22 3M488 113.91l4.51 2.71"/><path class="cls-2" d="M647.19 348.12a54.57 54.57 0 0 1 4.66 3" transform="translate(-159.98 -231.5)"/><path class="cls-2" d="M486.34 119.6l4.79 3.43M485.5 122.5l5.06 3.69M484.55 125.73l5.24 3.45M483.62 128.92l5.58 3M482.59 132.47l5.99 2.3M481.8 135.17l5.09 1.79M494.47 85.13L493 88.88M496.38 85.13L495 88.88"/><path class="cls-1" d="M742.58 417c4.39-14 13.08-43.18 13.08-43.18l-9.75 45" transform="translate(-159.98 -231.5)"/><path class="cls-2" d="M589.99 151.09l-9.68 33.2M587.45 159.81l3.91 2.45M586.74 162.26l3.92 3.26 9.23-4.23-7.96-1.66-6.16-3.84 12-2.62-9.86-1.38 17.02-5.75-15.04-2.5 4.5 3.13M585.77 165.58l4.22 3M584.89 168.58l4.52 2.71"/><path class="cls-2" d="M744.08 402.79a53 53 0 0 1 4.66 3" transform="translate(-159.98 -231.5)"/><path class="cls-2" d="M583.24 174.27l4.78 3.43M591.36 139.8l-1.47 3.75M593.27 139.8l-1.38 3.75"/><path class="cls-1" d="M469.26 137.71l2.42-8.79 2.32.26.93 11.76"/><path class="cls-2" d="M476.78 140.33L485.5 110M482.74 119.6l-4.47 20.23"/><ellipse class="cls-1" cx="646.86" cy="375.13" rx="6.98" ry="5.06" transform="rotate(-11.76 -556.83 1036.158)"/><path class="cls-1" d="M645.19 392.62a7.59 7.59 0 0 1-4.41-2.82 2.34 2.34 0 0 1-.49-1.91 28.91 28.91 0 0 0-.26-11.34M653.7 373.71s1.38 10.17.81 17.28a1.66 1.66 0 0 1-1.25 1.5 18.66 18.66 0 0 1-3.15.52" transform="translate(-159.98 -231.5)"/><ellipse class="cls-1" cx="648.64" cy="386.53" rx="1.3" ry="2.32" transform="rotate(-82.47 436.59 362.039)"/><path class="cls-1" d="M646.34 386.23l-1 7.66c-.1.71.86 1.42 2.13 1.59s2.38-.27 2.47-1l1-7.66" transform="translate(-159.98 -231.5)"/><ellipse class="cls-1" cx="664.76" cy="389.69" rx="1.3" ry="2.32" transform="rotate(-82.47 452.714 365.197)"/><path class="cls-1" d="M506.67 161.66l.42-3.17M502.49 157.88l-.67 5.04"/><ellipse class="cls-1" cx="629.03" cy="375.65" rx="1.3" ry="2.32" transform="rotate(-82.47 416.974 351.16)"/><path class="cls-1" d="M626.72 375.35l-1 7.66c-.09.71.86 1.42 2.13 1.59s2.38-.27 2.48-1l1-7.66" transform="translate(-159.98 -231.5)"/><path class="cls-1" d="M508.44 157.48l7.97-31.75"/><path class="cls-1" d="M675.11 362.33c-.09.34 2 38.92 2 38.92" transform="translate(-159.98 -231.5)"/><path class="cls-1" d="M511.93 159.37l16.2-20.88"/><path class="cls-1" d="M688.73 364.91c0 .09-4.25 36.77-4.25 36.77" transform="translate(-159.98 -231.5)"/><path class="cls-1" d="M682.43 241.41l15.6 8.68M936.5 160.23l-.5 1.28M960.25 146.88l-.42 1.99"/><path class="cls-2" d="M647.15 402l11.61 26.76s-15.76-13.05-15.53-12.94 10.61 1.61 10.61 1.61l-8.11-10" transform="translate(-159.98 -231.5)"/><path class="cls-1" d="M1035.64 29.98L1023 58.15l-22.25 9.73-1.28 4.59M1041.16 24.68l8.59-20.01-2.17-1.34-9 20.09M1026.16 59.64l12.22-28.47"/><path class="cls-1" d="M1194.86 253.17c1.2.5 11.34 5.5 11.34 5.5l-3.64 5.83-10.33-4.5z" transform="translate(-159.98 -231.5)"/><path class="cls-2" d="M1203.64 234.33c.59.42 7.67 4.42 7.67 4.42M1212.31 234.33c-.17.34-2.58 5.59-2.58 5.59" transform="translate(-159.98 -231.5)"/><path class="cls-2" d="M1046.22.25l-2.14 4.79"/><path class="cls-1" d="M359.23 735.25s3.25-3 19.25 1.75 12.75 2.83 23.5 4.67 17.5 2.08 19.5 3.71S428 743 440 748.6s4.53 3.32 15.52 5.36 8-.46 16.23 3 12.33 7 19.16 6.25 13.75-1.25 15.67-2.5a124.26 124.26 0 0 1 13.15-6" transform="translate(-159.98 -231.5)"/><path class="cls-1" d="M508.73 758.25s7.5-6.25 15.25-8.13 4.06.88 10.9-4.74 10.24-6.22 12.54-6.92 10.06-6.28 18.06-9.12 7.58-8 14.91-8.65 8.75-6.42 15.67-7.05 9.42-4.95 19.42-5.79 9.23-7.35 17.36-8.48 16.64-6.59 19.89-7.85 13.73-10 23-10.52 13.88-7.79 19.32-8.27 13.37-5.22 19-7.85 11-7 16.57-9.57 12.84-11.67 15.46-11.74 5.8-7.84 14.09-9.83 11.73-4.92 19-7.2 19.26-12.38 26.64-14.71 12.72-6.41 15.55-8 10.5-6.75 18.67-11.66 8.94-6.69 16.18-9.68 16.49-5.61 18.36-6.8 14-6.21 23.94-12.2 10.69-8.17 19.69-13.83 3.5-4.8 13.37-6.48S963 532 966.62 527.5s.61-6.33 11.36-8.17 19-4.08 21.5-6.08 17.16-10.75 22.58-14.13a202.24 202.24 0 0 1 19.39-10.31c6.53-3.06 7.67-4.11 16.22-6.71s17-10.1 28-14.48 12.13-4.34 21.59-11.6 21.29-13.61 27.25-18.94 8.61-5.82 12.78-8.82 15.1-12.66 20-15.44" transform="translate(-159.98 -231.5)"/><path class="cls-4" d="M644.92 172.77l5.83-15.6M652.17 163.63l-3.59 9.87M644.41 163l2.36-6.83M665.43 165.52l-5.18 15.15M667.33 172.77l-3.41 9.74M659.5 169.83l-3.25 8.35M680.08 173.09l-5.5 15.59"/><path class="cls-4" d="M836.14 404.59c-.08.16-2.91 8.66-2.91 8.66" transform="translate(-159.98 -231.5)"/><path class="cls-4" d="M681.46 180.33l-3.54 9.42M643.94 176.01l-5.88 15.55M639.14 174.44l-3.33 9.34"/><path class="cls-4" d="M806.48 413.25c-.13.37-3.32 8-3.32 8M818.66 415.28c-.12.47-4.42 12.44-4.42 12.44" transform="translate(-159.98 -231.5)"/><path class="cls-4" d="M653.25 187.53l-2 5.97M661.97 186.19l-2.93 8.81"/><path class="cls-4" d="M833.23 424.19c.06.19-3.88 10.31-3.88 10.31" transform="translate(-159.98 -231.5)"/><path class="cls-4" d="M675.56 197.56l-2.87 7.69M670.57 190.52l-2.82 7.67"/><path class="cls-4" d="M794.73 377.5c-.19.44-4.93 13.58-4.93 13.58M796 385.06c-.06.06-2.56 8.2-2.56 8.2" transform="translate(-159.98 -231.5)"/><path class="cls-4" d="M630.63 144.44l-3.13 8.35M628.29 162.26l-2.04 6.88M632.29 167.69l-1.13 4.62M624.94 161.5l-1.69 5.58M621.39 139l-3.47 11.09M621.81 146.81l-2.16 7.5M617.69 157.66l-1.63 5.34"/><path class="cls-4" d="M724.23 387.67c-.13.45-2.38 13.39-2.38 13.39" transform="translate(-159.98 -231.5)"/><path class="cls-4" d="M567.75 162.26l-1.69 8.55M560.19 155.38l-1.06 6.88M661.42 293.45l-4.09 12.9M664.13 299.06l-3.38 10.38M658.25 292.61l-3.5 10.47M657.16 270.5l-3.41 10.79M727.38 246.57l-4.88 13.56M730.63 249.68l-3.77 11.07M724.54 244.29l-3.41 9.29M726.62 292.92l-4.88 13.56M729.87 296.04l-3.77 11.07M723.78 290.64l-3.41 9.29M708.76 243.59l-4.88 13.56M712.01 246.71l-3.77 11.06M705.92 241.31l-3.41 9.29M735.25 272.63l-4.62 13.62"/><path class="cls-3" d="M735.25 281.58L738 274M716.32 263.96l-4.31 11.93M719.63 267.63l-4.25 11.8M724.18 267.63l-3.81 11.81M738.33 254.15l-4.31 11.94M741.63 257.82l-4.25 11.81M746.19 257.82l-3.82 11.81M696.26 228.57l-5.13 15.72M697.83 237.36l-2.58 7.82M692.44 227.13l-4.19 12.37M729.25 277.79l-2.39 6.14M839.5 212.42l-4.17 11.09M841.23 217.82l-3.23 7.91M835.75 210.48l-2.67 8M833.08 227.58L827.5 242M836.63 229.25l-4.75 11.37"/><path class="cls-3" d="M989 457.66c-.13.22-2.63 7.34-2.63 7.34" transform="translate(-159.98 -231.5)"/><path class="cls-3" d="M826.38 245.96l-4.3 12.54M829 250.75l-3.37 9.37M822.08 244.29l-4.45 11.84M825.5 203.64l-1.73 4.93"/><path class="cls-3" d="M989 438.62c-.38.63-3.5 10-3.5 10" transform="translate(-159.98 -231.5)"/><path class="cls-3" d="M822.46 223.51L818 234.79M815.67 242l-3.17 8.75M778.13 223.51l-1.3 4.57M781.75 225.73l-1.18 4.41M763.5 215.67l-2.12 7.03M758.25 214.48l-1.75 6.73M749.5 209.09l-1.25 6.58M751.5 214.21l-.87 3.89M811.08 195.38l-1.82 5.6M808.09 195.38l-1.4 4.25M797.5 187.53l-2.06 6.02M799.94 191.39l-.88 2.42M732.92 178.58l-4.09 11.17M734.28 185.42l-2.03 6.39M728.5 178.17l-2.83 8.66M727.22 193.55l-3.47 10.09M729.25 199.17l-2.03 6.41M785.3 170.67l-3.38 12.16M787.5 176.75l-2.2 7.42M781.58 169.58l-2.5 9M745.42 148.83l-4 11.5M747.08 154.77l-2.16 7.56M742.08 147.07l-2.5 8.78M712.7 144.67l-.76 3.48M699.75 137.95l-1 3.38M686.25 130.67l-1 6.93M672.25 123.15l-.52 3.49"/><path class="cls-3" d="M891.65 309.17l-4.09 11.41" transform="translate(-159.98 -231.5)"/><path class="cls-3" d="M732.92 82.67l-2.67 7.83M728.58 76.17L726 84.5"/><path class="cls-3" d="M917.69 322.08l-4.09 11.41" transform="translate(-159.98 -231.5)"/><path class="cls-3" d="M758.96 95.58l-2.67 7.83M754.62 89.08l-2.58 8.33"/><path class="cls-3" d="M899 331.33l-4.09 11.41" transform="translate(-159.98 -231.5)"/><path class="cls-3" d="M740.29 104.83l-2.67 7.84M735.96 98.33l-2.59 8.34M751.58 106.58l-4.16 10.91M754.67 108.09l-4.09 11.08M748.58 104.89l-2.83 7.4M744.71 84.36l-4.17 10.91M747.79 85.87l-4.08 11.07M741.71 82.67l-2.84 7.4M726.36 93.74l-4.17 10.91M729.44 95.25l-4.08 11.07M723.36 92.05l-2.83 7.4M746.58 121.25l-1.87 5.39M748.92 125.25l-1.13 3.17M743.08 119.17l-1.37 3.88M734.17 114l-2.26 5.8M736.5 116.9l-1.17 3.6M730.25 112.29l-1.67 4.61M721 107.67l-1.44 5.32M723.36 110.75l-1.17 3.77"/><path class="cls-3" d="M1041.73 385c-.17.33-4.34 11.25-4.34 11.25M1044 390.33c-.34.5-3.17 8-3.17 8" transform="translate(-159.98 -231.5)"/><path class="cls-3" d="M878 150.99l-2.98 7.72"/><path class="cls-3" d="M1047.81 408.27c-.17.34-4.34 11.25-4.34 11.25M1050.06 413.61c-.34.5-3.17 8-3.17 8" transform="translate(-159.98 -231.5)"/><path class="cls-3" d="M884.08 174.26l-2.28 7.06"/><path class="cls-3" d="M1020.92 392.92c-.16.33-4.33 11.25-4.33 11.25M1023.18 398.25c-.34.5-3.17 8-3.17 8" transform="translate(-159.98 -231.5)"/><path class="cls-3" d="M857.75 159.34l-2.83 6.63"/><path class="cls-3" d="M1014.43 370c-.16.33-4.33 11.25-4.33 11.25M1016.69 375.37c-.34.5-3.17 8-3.17 8" transform="translate(-159.98 -231.5)"/><path class="cls-3" d="M850.71 136.03l-3.19 7.35M895.42 161.92l-4.59 10.91M890.83 164.08l-3.32 7.17M898.39 164.5l-3.47 9.17M875.02 168.53l-4.58 10.92M870.44 170.7l-3.32 7.16M878 171.11l-3.48 9.17M867.13 146.22l-4.58 10.91M862.55 148.38l-3.32 7.17M870.11 148.8l-3.48 9.17M848.02 153.25l-4.58 10.92M843.44 155.42l-3.32 7.16M851 155.83l-3.48 9.17M882.42 192l-1.9 4.76M884.94 196.76l-3.19 8.62M878.75 190.75l-1.33 4.24M869.12 184.38l-1.99 4.76M873 185.87l-1.5 3.94M864.84 182.94l-1.64 3.82M855.19 176.38l-1.75 4.78"/><path class="cls-3" d="M1019.16 409.69c-.06.19-1.43 4.21-1.43 4.21" transform="translate(-159.98 -231.5)"/><path class="cls-3" d="M842.3 168.53l-2.18 5.14M845 171.75l-1.26 4.08M838.31 166.75l-1.5 3.95M814.05 153.88L810.56 165"/><path class="cls-3" d="M977.23 389.47c-.13.09-3.63 12.26-3.63 12.26" transform="translate(-159.98 -231.5)"/><path class="cls-3" d="M809.85 154.38l-2.29 6.46M799.94 147.78l-3.81 10.93"/><path class="cls-3" d="M964 381.29c-.13.46-2.82 8.18-2.82 8.18" transform="translate(-159.98 -231.5)"/><path class="cls-3" d="M796.13 147.07l-3.57 10.54"/><path class="cls-3" d="M944.29 378.5c-.13.06-4 11-4 11" transform="translate(-159.98 -231.5)"/><path class="cls-3" d="M786.4 151.87l-2.79 7.47M780.69 145.13l-2.75 8.12M819.88 84.36l-4.63 12.58M821.08 91.4l-2.58 7.48"/><path class="cls-3" d="M977.08 315.08c-.27.25-3.85 10.09-3.85 10.09" transform="translate(-159.98 -231.5)"/><path class="cls-3" d="M802.21 93.54l-4.63 12.59M803.42 100.59l-2.59 7.47"/><path class="cls-3" d="M959.41 324.27c-.27.25-3.85 10.08-3.85 10.08M968.06 310.2c-.33.38-4 11.88-4 11.88" transform="translate(-159.98 -231.5)"/><path class="cls-3" d="M810.12 82.08l-2.79 7.73"/><path class="cls-3" d="M963.46 309.17c0 .33-2.65 8.7-2.65 8.7" transform="translate(-159.98 -231.5)"/><path class="cls-3" d="M813.83 100.59l-4.5 12.08M816.7 102.33l-2.87 8.42M810.12 100.59l-2.79 7.88M808.09 115.33l-1.45 3.63M811 118.96l-.66 2.15M795.58 109.33l-1.49 4.3M828.25 124.67l-1.55 6.12M824.33 125.19l-1.37 6.48"/><path class="cls-3" d="M1086.27 336.75c-.21.17-4.77 11.42-4.77 11.42M1087 343.23c-.09.52-2.59 6.26-2.59 6.26M1082.64 335.42c-.33.25-3.75 8.75-3.75 8.75" transform="translate(-159.98 -231.5)"/><path class="cls-3" d="M938.08 110.96l-4.91 11.5M940.19 114.86l-3.44 7.93M934.58 110.39l-2.92 7.6M913 98.88l-4.96 10.89"/><path class="cls-3" d="M1074.31 335.83c-.08.42-3.2 7.4-3.2 7.4" transform="translate(-159.98 -231.5)"/><path class="cls-3" d="M909.25 97.83l-2.75 6.5M900.58 92.92l-4.75 11.41M902 98.88l-2.92 6.79M897.71 92l-3.64 8.42M878.64 83.17l-4.81 12.08M881.5 87l-3.42 8.14M874.6 83.58l-2.85 7.49M867.08 77.53l-5 11.68M868.5 83.58l-2.92 7.07M863.71 76.24l-3.63 8.86M854.26 71.33l-1.25 2.32M857.43 73.65l-3.17 8.85M841.75 65.25l-.92 2.08M975 79.63l-6.31 8.79"/><path class="cls-3" d="M1136.69 315.52c0 .17-4.34 5.72-4.34 5.72" transform="translate(-159.98 -231.5)"/><path class="cls-3" d="M972.81 78.81l-4.12 5.94"/><path class="cls-3" d="M1124.73 302.56c-.13.25-6.07 8.94-6.07 8.94" transform="translate(-159.98 -231.5)"/><path class="cls-3" d="M965.56 76.24l-3.84 6M961.72 69.75l-4.28 5.78M955.81 83.13l-4.49 6.47M959.25 85.63l-3.44 4.68M952.06 83.13l-3.5 4.84M966.96 91.31l-3.32 4.68"/><path class="cls-3" d="M1124.33 320.75c-.29.19-3.42 4.4-3.42 4.4" transform="translate(-159.98 -231.5)"/><path class="cls-3" d="M971.12 93.25l-3.62 4.58M978.5 99.56l-6.59 8.47M978.06 105.92l-3.06 3.85M974.54 100.42l-2.7 3.5M986.62 88.42l-6.18 8.37M987.33 93.44l-4.27 5.81M984.12 86.88l-4.35 5.46M969.81 110.69l-6.11 8.78M970.75 115.25l-4 5.64M966.96 108.98l-2.61 3.15M961.79 121.75l-4.92 7.52M962.64 126.5l-4.02 6.06M1015.37 117.44l-3.62 8.07M1016.92 121.75l-2.16 5.01M1011.75 116.31l-2.5 5.16M1010.5 127.63l-3.69 8.79M1012.5 132.56l-2.25 6.07M1007.27 126.5l-1.96 4.33"/><path class="cls-3" d="M1158.88 354c-.22.35-3.59 7.85-3.59 7.85" transform="translate(-159.98 -231.5)"/><path class="cls-3" d="M1000.37 127.01l-2.25 5.01"/><path class="cls-3" d="M1155.29 355.75c0 .25-2.31 5-2.31 5M1163.48 344.17c-.07.14-3.13 6.8-3.13 6.8M1167.24 345c-.33.38-3.39 7.39-3.39 7.39" transform="translate(-159.98 -231.5)"/><path class="cls-3" d="M1001.12 110.69l-2.68 5.62M1005.94 72.35l-1.38 3.89M1008.5 75.53l-1.17 3.28M957.53 49.38l-4.59 11.75M970.25 55.25l-3.29 6.56M964.75 58.19l-3.12 6.69M960 53.09l-2.88 7.66M954.25 48.5l-3.17 7.5M952.06 64l-4.25 11.13M954 67.75l-2.29 6.75M949 62.63l-2.87 8.5M945.56 77.17l-2.75 7.58M942.06 77.99l-2.14 5.45M948.25 79.63l-1.23 3.81M933.41 38.13L929 49.06M935.19 43l-3 7.38M929.81 37.44l-2.69 6.7M922.31 33.06l-3.75 10.53M923.81 38.88l-2.25 6.56M919.37 31.44L916.31 40M917.25 46.69l-4.94 11.84M918.56 52.61L915.44 60M913.06 45.44l-3.31 8.31M928.12 52.2l-4.31 11.3M929.56 57.85l-2.81 7.03M924.69 50.73l-3.13 8.71M911.14 61.13l-2.36 5.3M907.06 60.75l-3.25 7M922.31 65.77l-1.59 3.79M924.69 68.45l-1.57 4.19M914.75 205.83l-3.31 9.84M916.75 210.48l-2 7.27M420.42 401.13l12.46 8.58-1.75 4.21-2.09.46-9.67-6.3-.74-2.2 1.79-4.75zM411.91 425.73l1.38-3.67 12.46 8.58-1.75 4.21-2.08.46-2.72-1.77M401.34 392.43l1.63-4.31 12.46 8.58-1.75 4.21-2.09.46-2.14-1.39M386.65 380.33l10.3 7.1-1.41 3.4M387.2 388.24l-3.75-2.44-.75-2.2.78-2.05M243.19 400.25l3.56 16.16-4.69.28-1.75-1.13-2.54-12.37 1.04-2.5 4.38-.44zM299.77 417.45l.87 16.52-4.67-.49-1.54-1.39-.49-12.63 1.44-2.29 4.39.28zM299.44 440.31l4.06 3.44-4.06 13.39-4.31-3.33-.88-2.37 3.31-10.31 1.88-.82zM696.26 262.35l10.06 6.02-1.91 4.51-1.9.25-7.26-4.25-.42-2 1.43-4.53zM705.81 286.85l10.06 6.01-1.91 4.51-1.91.25-7.25-4.25-.42-2 1.43-4.52zM648.19 314.48l10.06 6.02-1.91 4.51-1.91.25-7.25-4.25-.42-2 1.43-4.53zM639.02 309.2l4.01 2.4-1.91 4.51-1.9.25-2.38-1.39M645.13 292.95l3.65 2.18-1.92 4.51-1.9.25-2-1.17M689.5 283.02l-.14-.71 1.43-4.52 10.06 6.01-1.92 4.51-1.9.25-3.95-2.31M680 272.07l6.25 3.73-1.91 4.51M686.13 254.64l5.24 3.13-1.91 4.51-1.91.25-3.6-2.11M925.71 128.38l8.1 4.5-.98 3.01-1.77.53-5.81-2.95-.83-1.8 1.29-3.29zM913.42 122.04l8.11 4.5-.98 3.02-1.77.53-5.81-2.95-.84-1.81 1.29-3.29zM906.23 119.42l2.64 1.47-.98 3.01-1.77.53-3.2-1.62M854.41 94.86l8.1 4.5-.97 3.01-1.78.53-5.81-2.94-.83-1.81 1.29-3.29z"/><path class="cls-2" d="M200.23 731.25c1.5.25 7.5-2.89 25.5-3.32s3.5-.93 18-.43 13.5-3.4 21.5-2.45 15.47-4.36 15.47-4.36M274.48 727.93c1.25-.43 11.25-6.93 17.5-5.43s8-.7 11.5-.22a38.16 38.16 0 0 0 8-.07M299.23 726.75c4.5.5 11-1.29 16.63-.77s8-1.09 11.31-.91 4.24-.21 7 0M316.71 733c3.52 0 9-2.47 13.77-1.74s5.5-1.76 10-1.38a41.38 41.38 0 0 0 7.75 0M274.48 735.25c2.75.5 14.25-3.25 17-2.25s3.75-1 7.75 0M299.23 737.25c3.25.25 2.5-2.25 12.25-1s4.75.92 12.25.33 13.75-1.59 15-1.33M325 742.16c3 .34 6.25-3.41 16-1.41s9-.75 12.27 0 8-.59 8-.59M353.25 747.25c4.48.25 11.39-2.75 18.06-1.87s7.79-.45 12.6-.17a97.57 97.57 0 0 0 10.17 0M308.59 750.12c5.39.63 11.89-1.41 18.89-1.52s8.75-3.41 11.25-2.38 4.25.06 4.37 1M340 753.5c3 0 1.29-2.25 9.77-1s8.23 0 13-.38 11.78-2.37 12.89-2M388.06 751.83s-4.16-2.67 3.88-1.75 10.95-1.31 16.62-.19 8.17.26 10.54.81M372.6 760.25c2.63.25 5.94-5 17.91-4s9.72-.5 15.72-.13a95.75 95.75 0 0 0 11.75-.06l14.23-2.1M410.38 763.35c6.1 1.4 6.68-2.35 17.51-1.35s15.38-1.74 15.38-1.74 6.66-2.49 7.93 0M423.23 771.75c6.75-.25 17.08-9.25 24.16-6.75s16.09 1.25 16.09 1.25l9.31-1.69M461.66 776.25c6.82-.25 16.47-5 25.64-4.5s10.68-5.5 21.43-5a54.91 54.91 0 0 0 18.58-2.19M525 760.26s4.81-4.79 9.9-3.15 7.85.36 12.1 0 5.6-1.61 11.42-1.36 8.05-2.83 9.94-1.79M547.42 748.6c1.56-.1 7.43-3.85 16.62-2.1s12.52-.68 16.35-.46 4.59-5.46 9.34-4.37 14-.92 14-.92M538 751.83c2.94.42 9.77-1.68 17.48-1.13s3.21-2.57 15.21-1.13 36.81-2.07 36.81-2.07 10.2-3.5 10.94-3M560.34 737.81c4.64.19 19.6-4.62 23.74-4s18.52-3.34 23.46-3.59 3.79-4 7 .35 13.11 1.65 15.28 2.4 10.42-3.12 10.42-3.12M587.6 726.37c3.38.38 10.88-6.37 17.38-3.62s7.95.83 12.72.92 16.3-3.24 16.3-3.24l11.45-1.43M621.21 711.46c3 .79 1.75-2.46 11.63-1.46s16.39-5.5 20.89-3.5 8.56-9.34 12.28-8.54 17.35-3.16 17.35-3.16 8.95-5.8 10.16-4.55M643.29 712.41c5.69.59 20.94-4.47 25.56-4.56s6.5-7.23 12.94-5.79 10.31-1.4 12.5-1.23M693.6 696.4c2.88-.65 1.84-8 14.23-4.71s16.2-2.06 18.17-1.87M704.76 686.34c1-.59 7.4-6.17 12.68-5.63s2.12-2.06 13.2-3.13 13.7-2.37 13.7-2.37M684.64 684.89c3.84-.39 12.3-8.51 18.44-7.95s4.56-4.23 11.61-4.21 12.2-1.3 12.74-1.64M726 666.81c1.73-.56-4.73-3 6.75-2.3s13-1.3 15.64-1.78 5.58-4.23 8-3.48M734.77 672.44c4.71-.69 11.08-6.11 17.9-5.27s1.31-1.76 9.93-.09 7-2.21 7.79-.27M723.74 684.38c3.24.37 6.28-4.38 12.76-2.88s5.45-3 13.34-3.15 8.76-2.35 9.95-2M748.78 653.56c1-.06 4.45-7.62 9.2-4.84s8.93 1.34 14.21.81 5.61-6.86 10.32-3.94M743.51 657.51c9 0 14.55-5.64 18.88-4s6.91 1.44 11.87.69 8.25-1.5 8.25-1.5M762.18 661.47c1.8 0 3.48-4.47 10-2.22s4.86 2.47 10.32.61 9-6.24 11.38-6.3M769.73 640.25c1.27-.25 9.75-9.25 16.12-5.25s9.7 3.06 13.16 3.41M788.36 629.37s3.55-.13 13.08 0 6.79-3.37 12.29-2.49 10.54-.16 12.77-.15M787.23 642.52c.75.23-1.92-2 6.66-.64s12.89-3.46 14.49-3 8.09-2.35 11-1.71M807.43 632.88c3.05.12 3.12-3.55 9.71-1.34s11.08-.62 14.46-.71a29.2 29.2 0 0 0 7.38-1.46M804.73 621.16c2 .09 12-8.09 19.37-4.37s9.46 2.13 12.79 2 5.23-2.79 7-2.31M818.23 622.76s12.83.76 18.66 0 7.11-4.76 10.74-2.26 6.83-1.08 11.09-1.67 5.15-3.26 7.58-2M828 611.09s10.75-6.24 18.25-4.17 13.08-3.26 19.67-2.34 7.83-1.16 11.7-.75" transform="translate(-159.98 -231.5)"/><path class="cls-2" d="M838 612.54c3 .21 10.6-6.61 15.65-3.95s5.89 1.35 12.23 1.38 9-1.64 10.4-1.43M844.39 598.89c1.09-.14 13.6-7 19.47-4.46s8.37-1.78 13.74-.48 8.12-1.26 9-.35M862.6 600.49c1.38.26 6.71-3.45 11.54-1.6s6.54-3.25 11.94-2.19a18.62 18.62 0 0 0 10.07-1M864.39 589.27s6.84-8 14.46-3.89 11.26.24 14.69 2.18 10-1.52 10.72-1.16 7.22-2 7.22-2" transform="translate(-159.98 -231.5)"/><path class="cls-2" d="M875.85 591.49c1.88 0 3.63-3 10.13-.85s13 .37 16.37 1.11 8.13-6.63 10.13-4.19M886.6 579.39c1.38-.39 6.71-6.51 13.29-3.7s8.34-1 10.71.41 5.13-1.47 7.63-.41S928 575 928 575M901.61 569.54c1.12.46 8-10.56 17.81-6s17.7-.88 21.13.82 8.92.67 9.55 1.18" transform="translate(-159.98 -231.5)"/><path class="cls-2" d="M913.48 571.33c1.75-.83 3.37-3.22 8.93-1.77s6.75-.7 13 0 17.16-.46 17.16-.46 12.07-9.79 12.47-7.32 5.91 3.7 7.41 3.71M940.55 574.39c.93.11 6.05-1.86 14.86-.88s12.16-3.84 14.74-2.18 7.43-.14 8.38.52M940.55 547.77c1.18.48 5.68-3.85 10.68-1.19s10.94 0 13.84.94 8.95-3 11.68-1.54M925.48 557.43s10.39-5.26 15.07-2.85 8.93-1.91 12.05 0 13.65.8 14.76 1.11 11.67-2.9 13.77-1.54M965.56 538.61s3.59-5.66 8.5-2.63 4.71-2.29 9.69.87 7.73-1.89 10.48-.12 5.83-6.74 12.66-3.36M965.56 542.23c2.92-.23 18.67-3.47 23.42-.85s13.33-2 17.91-.68 6.59-1.79 9.34-.74M978 526.3s2.82-10.93 16.41-3.12 12.34.39 17.59 2.48 5.25-2.76 10.5-1.21 12 .36 12 .36M1002.27 517.75c.71.25 4.83-7.14 11.14-3.07s5.57-1.47 13.7.92 13.61-2.49 16.36-.92M1027.1 509.29c1.63 0 2.79-6.92 12.46-3.11s11.73 1.61 17.07 1.21 13.23-3.27 13.23-3.27M1020 521c1.22-.25 3-2.37 9.76-.94s5.79-1.24 15.87-.78 14.09-3 15-1.53M1043.32 501.43c2.41.32 6.07-3.22 14.36-1.7s13-1.48 15.39-.61a53.6 53.6 0 0 0 8.32 1.55M1055.39 495.22s2.5-5.72 11.79-3 6.8.21 13.3 1.6a30.32 30.32 0 0 0 11.87.18M1068 497.59c2.71-.59 10.27-1.16 15 0s9.3-2.59 11.88-1.59M1071.41 487.62c1.57.38 10.38-4.8 20.22-1.84s12.35-.71 17.22 0M1083 490.78a152.57 152.57 0 0 1 15.35.18c6.37.54 11.87-3.84 17.12-2.15M1094.89 479.86c.34-.36 9.34-6.24 14-3.92s5.64-1.24 12.13.91 7.35.78 9 1.22M1086 481.59c3 .16 8-1.58 14.62.17s8.08-3.65 13-1.33 13.65 1.33 13.65 1.33M1098.36 471c5.87-.25 11.87-4.91 17.12-2.58s8.75-1.42 13.25.08 12.25-1 14 0M1123.74 472.54c1.74 0 .74-3.06 9.49-.42s14-2.46 15.25-.67 9-2.07 9-2.07M1214.92 380.51s.8-5 9.18-.52 8.63-3.25 18.38 0 12.25.25 18 1.51 15-.21 15-.21M1210.56 388.25c2.17-.5-.67-9.07 15.25-4.78s19.17 1 24.42 2.88 14.5 0 14.5 0M1198.14 396.5c3.84.25 7.47-7.75 16.78-4.5s18.56.23 20.81.37M1227.48 398.55c3-.05 12-7.32 18.75-4.69s20.25-1.35 21.75-.85M1189.83 405.29c1.65-.29 5.48-4.54 14.06-2.54s17.09-1.57 23.59.22 24-2.47 24-2.47M1177.41 414.44c3.57.06 16.57-5.44 24.82-2.07s18.1 2.46 18.42 2.54M1224.1 412.37c.88.13 10.63-6.08 19.88-4.1s15.75-3 22-2 14.5-.49 13.75 0M1159.22 425.62c4 .13 14-6.16 20.26-4s24.91-.57 26.58.16 11 0 11 0M1195.3 418.26c2.68.49 25.92-.29 28.8 1.6s8.88-2.18 10.38-.52M1141.93 435.5s-.46-13 17.29-5.6 24.51 2.32 26.51 2.58 11.33-3.1 12.41-1.91" transform="translate(-159.98 -231.5)"/><path class="cls-2" d="M1136.51 441.51c2.22-.26 1.9-8.54 16.06-5.28a159.52 159.52 0 0 0 24.32 3.84h14.48M1128.66 449.6c.82-.1 13.22-1.13 18.64.38s15.45 1 15.45 1M1156.23 444.67c.5.33 7-1.78 15.12.78s11.35-1.78 17.11.88 15.1-7 15.43-5.8M1206.2 433.5c1.78-.25 3-2.87 9.62-.93s13.91-4.19 16.66-2M1120.54 459.41c.94.09 5.31-1.64 17.5.85s11.16 0 19 0 17.47-7.49 19.8-5.25M1163.48 463.64c2.5-.39 17-6.07 22-4.23s8.75-2.45 11.5-1.43M1167.31 453.28c2.67-.28 3.69-5.45 14-2.61s16.12 2.08 21.37.83 10.5-2.34 10.5-2.34M1199.89 436.41c1.09.34 7.34.32 11.84 2.08s11.24-2.11 12.37-.68M1202.73 427.64s15.25-3.64 20-2 17.5 1.68 17.5 1.68M1243.23 414.44s4.5-2 12.25.53 11.75-3.68 14.25-1.07" transform="translate(-159.98 -231.5)"/><path class="cls-3" d="M813.83 189.75l28.23-11.82"/><path class="cls-3" d="M991.85 431.36c1.13-.11 26.59-11.42 26.59-11.42" transform="translate(-159.98 -231.5)"/><path class="cls-3" d="M844.37 204l21.6-8.62"/><path class="cls-3" d="M1014.9 437.81c1.08-.56 20.1-8.12 20.1-8.12" transform="translate(-159.98 -231.5)"/><path class="cls-3" d="M898.21 156.75l23.4-10.07"/><path class="cls-3" d="M1047.49 381.29c.74-.54 23.62-8.85 23.62-8.85M1032.23 371.65c.75-.65 22.66-10.06 22.66-10.06M976.67 381.5c.56-.25 24.14-8.67 24.14-8.67" transform="translate(-159.98 -231.5)"/><path class="cls-3" d="M804.08 143.81l27.06-9.68M682.43 167.94l33.89-11.19M670.25 160.5l36.07-11.7M717.19 141.59l28.23-9.92M706.32 135.28l28.93-9.77M688.25 126.5l26.84-8.84M656.5 152.79l31.79-10.21"/><path class="cls-3" d="M801.73 374.08c1.25-.08 30.64-10 30.64-10" transform="translate(-159.98 -231.5)"/><path class="cls-3" d="M629.08 135.04l29.61-9.41M747.79 80.42l27.68-9.09M763.5 87.97l24.75-8.34M734.66 242.67l29.31-12.04"/><path class="cls-3" d="M919.79 478.38c2.19-.63 24.5-9.88 24.5-9.88" transform="translate(-159.98 -231.5)"/><path class="cls-3" d="M715.38 234.79l28.9-12.27M702.51 223.19l28.12-11.06M626.25 219.11l35.97-13.53M621.81 211.28L651.64 199M597.75 182.94l27.41-7.9M567.75 151.23l38.28-11.43"/><path class="cls-4" d="M1077 326.75c1-.25 16.68-10.61 16.68-10.61" transform="translate(-159.98 -231.5)"/><path class="cls-4" d="M935.19 100.83L949 92.77M942.09 106.67l13.72-8.05"/><path class="cls-4" d="M1139.36 307.74c.62-.24 11.17-6.13 11.17-6.13" transform="translate(-159.98 -231.5)"/><path class="cls-4" d="M1026.16 62.01l-14.79 6.47M1011.37 57.72l-11.9 5.78M997.55 51.54l-10.22 5.38M936.75 34.83l15-6.33M857.82 67.75l18.44-7M872.73 74.5l17.36-6.02M824.33 81.78l17.97-7.28M786.67 131.67l21.42-6.42"/><path class="cls-4" d="M993.29 353l25.91-8" transform="translate(-159.98 -231.5)"/><path class="cls-4" d="M862.51 134.13l23.11-8.94"/><path class="cls-2" d="M225.23 715.62s15.5-5.19 30.5-4.16 8.35-2.08 23.42-.77 15.74.69 24.66 0a75.44 75.44 0 0 1 17 .77M186.23 701.05c14 1 31-4 45.5-3.53s18-6.66 23.5-3.34.5-6.78 11.5-1.73M263.23 702.06c2.5-.56 8.3-9.56 19.4-5.56s7.6-2 16.6 0 11.87-.5 11.87-.5M225.23 682.12c6-.12 27.5-9 38-4.54s13.43-1.7 17.47-.64 12.61-2.19 13.66-.56M225.23 689.29s15-7.5 26.5-4.89 16.16 2.24 21.83 2.67 10.54-6.38 13.6-3.22M160.23 676.94c5.5-.44 31.5-12.5 47-9.47s16.5-3 21.5-2 10-3.41 14-1.94M240.46 672s15.27-8.63 26.27-5.57 6.43-6.52 14-2.72M324.85 776.25s19.38-7.44 33.63-5.84 14.91-3.6 24.33-2.25l9.42 1.34" transform="translate(-159.98 -231.5)"/></svg>