<svg id="Layer_4" data-name="Layer 4" xmlns="http://www.w3.org/2000/svg" viewBox="0 0 1176.81 936"><defs><style>.cls-1,.cls-2{fill:none;stroke:#231f20;stroke-linecap:round;stroke-linejoin:round}.cls-2{stroke-width:.5px}</style></defs><path class="cls-1" d="M905.16 675.5c-73.21 3.36-150 4.77-150.5-9.69S838.9 650 838.9 650l4.26 3s-78.75 1-78.25 11.75 65.75 10 133.75 7.5z" transform="translate(-131.59 -36)"/><path class="cls-1" d="M843.16 653l.37 6.88s-100.68 2.65-66.65 11" transform="translate(-131.59 -36)"/><path class="cls-1" d="M905.16 675.5v7c-73.21 3.36-150 4.77-150.5-9.69v-7" transform="translate(-131.59 -36)"/><path class="cls-1" d="M774.26 682l-3 245.15s-14.33-1.67-21.67-10l5.09-244.36" transform="translate(-131.59 -36)"/><path class="cls-1" d="M646.17 878.57l-.19 10.6-6.34 2M650.33 646.98l-3.84 213.52"/><path class="cls-1" d="M880.6 814.73c-28.37 4.69-74.53 9.17-101-4.9M898.75 805.83l6.41 4s-2.34.59-6.41 1.46M780.15 781.5c13.25-7 64.76-9.33 64.76-9.33l35.66 22.29M880.57 819.73c-28.37 4.69-74.51 9.17-100.93-4.9M905.16 809.83v5s-2.35.59-6.46 1.47" transform="translate(-131.59 -36)"/><path class="cls-1" d="M748.98 867.67V647.54M767.66 646.77l-1.02 246.73-12.33 2-5.33-2v-8.66M754.97 647.3l-.66 248.2M704.48 836.85l-.5 27.32M705.39 788.31l-.56 30.19M707.98 648.72l-1.63 87.84M694.55 737.42l1.09-88.7M692.99 863.44l.93-75.13M689.31 833.11l-.33 30.39M689.8 788.14l-.31 28.73M691.31 648.72l-.96 89.09"/><path class="cls-1" d="M646.49 860.5l102.49 7.17 5.33 3.5-114.33-7 6.51-3.67zM639.98 878.19l114.33 6.98M646.88 838.75l42.61-21.88 4.06 1.26-46.67 25.25M646.6 854.75L693.39 831M734.8 866.67l-34.99-34.42V818.5h5.02l44.15 39.25M699.81 818.5l49.17 45.67"/><path class="cls-2" d="M627.31 658l-4.25 184.59M635.81 729v138.67M657.81 871.17l75.5 4.83M704.23 825.88l35.58 34.62M761.31 676v146.5M699.81 658v64"/><path class="cls-1" d="M695.42 641.66c-1-6.59 63.49-6.41 63.49-6.41v-5.75s-72 .75-70.25 9.25 102 2.5 102 2.5l9.75 2.06s-119.32 7.69-121.22-3.66 74.13-12.36 74.13-12.36l5.59 2.21" transform="translate(-131.59 -36)"/><path class="cls-1" d="M800.41 643.31v7s-119.32 7.69-121.22-3.66v-7M752.85 759.81c-28.63 1-46.39-3.39-52.61-5.3M784 756.86c-1.18.18-2.26.32-3.42.48M795.7 759.86c2-.37 4-.77 6-1.19v-5c-2 .42-4.06.82-6 1.19M780.62 762.34l3.5-.51M700.24 759.51c6.21 1.91 23.93 6.31 52.5 5.31" transform="translate(-131.59 -36)"/><path class="cls-1" d="M670.14 717.67l-6.11-3.13"/><path class="cls-1" d="M700.24 839.6v35.9l-5.33 3.09s-14.1-5.09-15.72-14.42V646.65" transform="translate(-131.59 -36)"/><path class="cls-1" d="M568.65 616.12v174.55M564.32 615.76l-1.01 226.83M664.77 784.91l.46 44.42M663.33 647.98l.97 93.11M663.1 626.48l.11 10.33M662.98 614.66l.02 2.03M653.63 781.48l1.06 53.26M650.96 647.05l1.92 96.72M650.58 627.86l.15 7.88M650.33 615.33l.06 2.98M650.6 792.84l-.27-12.86M651.5 836.38l-.61-29.67"/><path class="cls-1" d="M753.48 652.45v76.82s-38.43.52-53.24 7.16" transform="translate(-131.59 -36)"/><path class="cls-1" d="M621.89 599.27v7.6M612.98 729v62.83M612.98 616.67v76.9M612.98 599.45v7.42M609.81 771.13v20.62M609.81 729v30.17M609.81 616.69v77.04M609.81 599.47v7.7M568.65 776.17l41.16-17 3.17 1-43.67 19.81M568.65 789.17l44.33-19.6M648.05 794.86l5.85.14-2.98-2.17-3.21-.08M619.83 792.01l-51.18-1.34-4.84 2.16 55.74 1.34M647.46 806.58l6.67.25M563.48 803.41l56.07 2.12M620.5 760.17h-3.69v9.4l3.46 1.56M616.81 760.17l3.69 1.83"/><path class="cls-2" d="M683.16 671.74c-.25 1 0 162.59 0 162.59" transform="translate(-131.59 -36)"/><path class="cls-2" d="M559.56 734.25v95.87M572.81 796.25l40.17 1M660.06 667.5v66.75"/><path class="cls-1" d="M726.86 620.28s-87.66 5.2-97.93-2.81c-8.59-6.7 65.77-8.64 65.77-8.64l2.21 1.17s-68.79 1.53-60.84 6.83c9.5 6.34 88 2 88 2z" transform="translate(-131.59 -36)"/><path class="cls-1" d="M696.91 610l.29 4.67s-60.16 2-52 4.44" transform="translate(-131.59 -36)"/><path class="cls-1" d="M726.86 620.28c.09.39 0 5 0 5s-87.66 5.2-97.93-2.81a1.64 1.64 0 0 1-.68-.91v-5" transform="translate(-131.59 -36)"/><path class="cls-1" d="M642.88 781.46l-.31 29.54-4.5 1.5s-8-2.52-10.83-6.93l1.69-183.1" transform="translate(-131.59 -36)"/><path class="cls-1" d="M512.88 589.97l-1.49 145.36M508.48 589.5l-2 187"/><path class="cls-1" d="M679.16 715.53c-13.35.19-26.64-.76-35.56-4.2M710.05 713.49c-3 .33-6.31.66-9.81 1M721.73 708.27l4.76 3.06s-1.74.29-4.76.71" transform="translate(-131.59 -36)"/><path class="cls-1" d="M568.65 658.44l9.8 6.31"/><path class="cls-1" d="M721.81 716c3-.42 4.68-.7 4.68-.7v-4M700.24 718.45c3.5-.3 6.8-.63 9.81-1M643.6 715.33c8.92 3.44 22.21 4.39 35.55 4.2M679.15 694.44s-31.15 1.72-35.55 7.39" transform="translate(-131.59 -36)"/><path class="cls-1" d="M542.48 591.29v67.52M532.98 591.29v68.51M561.64 590.66v4.84M561.64 578.81v5.21M552.31 590.85v7.98M552.31 579.18v4.84M589.84 727.69l-.14 39.78M590.22 617l-.27 78.41M590.27 600.25l-.02 7.03M590.31 589.5l-.01 3.18M581.94 593.38l.02-3.44M581.85 607.11l.04-6.24M581.3 696.86l.49-79.99M580.84 771.13l.27-44.52M578.11 747.31l-.16 25.02M578.25 726.09l-.08 11.26M578.96 616.82l-.52 80.61M579.07 601.15l-.04 5.72M579.14 590.06l-.02 3.32M568.64 737.08l12.2.34M506.92 735.33l40.64 1.15M568.65 746.99l12.19.33M506.81 745.34l40.75 1.09M511.48 726.24l36.08-11.7M512.88 735.33l34.71-11.37M511.48 729.65l36.08-11.98M568.65 729l9.3 6.33"/><path class="cls-2" d="M500.81 594.84l-1.75 148.93M517.56 739l24.92 1M537.06 598.83v45.42"/><path class="cls-1" d="M531.94 719.6v-36.06M540.9 726.34l-.09 4.29h-8.87v-1.46M541.81 683.54l-.7 33.09"/><path class="cls-1" d="M678.32 603.42s-84.39 4-84.83-2.74c-.36-5.53 58.89-5.43 58.89-5.43l1.86 1.33s-54.67-.07-54.33 3.84c.4 4.74 76.5 1.33 76.5 1.33z" transform="translate(-131.59 -36)"/><path class="cls-1" d="M593.49 600.68v4c.44 6.72 84.83 2.74 84.83 2.74v-4" transform="translate(-131.59 -36)"/><path class="cls-1" d="M654.24 596.58v3s-46.2.83-45.18 2.87M605.05 741l-.39 24.65-4.5 1s-7.25-1.44-9-6.66l2.33-155.28" transform="translate(-131.59 -36)"/><path class="cls-1" d="M475.58 571.96l-1.99 124.28M472.09 571.67l-3.53 158.96M517.78 649.05l-.09 13.74M518.16 590.65l-.27 41.38M518.23 581.37l-.02 2.19M518.28 572.51l-.02 2.87M518.34 563.92l-.02 2.53M542.48 571.67v2M532.98 571.95V574M512 697.06l19.94.37M469.32 696.24l27 .52M511.69 706.14l20.25.61M469.32 704.88l26.91.8M516.32 680.72v16.42"/><path class="cls-1" d="M647.91 719c0 .25 15.62 11.5 15.62 11.5" transform="translate(-131.59 -36)"/><path class="cls-1" d="M473.69 690.38l22.75-6.82M473.69 692.5l22.73-7.12M480.22 696.45l16.14-4.7"/><path class="cls-2" d="M464.56 573.67l-1.5 138.08"/><path class="cls-1" d="M510.14 572.51v3.8M510.14 563.92v2.53"/><path class="cls-1" d="M628.25 669.67c-9 1-18 2.3-22.07 4.16M649.52 668l-5.48.33M664.57 673.14l-10.33-5.34s-1.8.07-4.72.23M674.07 680.74c2.69-.3 4.25-.49 4.25-.49l-4.25-2.2M644 683.44c7.44-.49 14.65-1.13 20.53-1.7M606.18 683c5 1.15 13.06 1.41 22.06 1.2M628.24 686.18c-9 .21-17.09 0-22.06-1.2M664.57 683.74c-5.92.58-13.21 1.22-20.71 1.71M674.07 682.74c2.69-.3 4.25-.49 4.25-.49v-2M625.66 587.25s-50.25 0-50 3.25 63.41 1.5 63.41 1.5l1.9 1.12s-70.44 2.41-70.44-2.11c0-5.45 53.44-5 53.44-5z" transform="translate(-131.59 -36)"/><path class="cls-1" d="M596.16 598.72c-13.89-.17-25.63-.86-25.63-2.71v-5" transform="translate(-131.59 -36)"/><path class="cls-1" d="M509.37 557.13v2.12"/><path class="cls-1" d="M625.66 587.25v3.37s-32.32-.2-38.32 1.56" transform="translate(-131.59 -36)"/><path class="cls-1" d="M447.61 679.49l-.13 22.08-4 .76-6.5-3.66 1.96-138.66M448.31 562.14l-.66 110.27M445.14 562.72l-1.66 139.61M474.14 673.35l22.39.8M443.84 672.27l16.49.59M473.85 680.54l22.47.9M443.84 679.33l16.38.66"/><path class="cls-1" d="M592.75 653.83c-6.34.66-11.48 1.58-13.19 2.84M628.25 652.12s-10.49.09-21.79.69M606.46 663.65a197.36 197.36 0 0 0 22.1-.82M579.91 661.55s4.86.82 12.7 1.44M606.46 665.65a197.28 197.28 0 0 0 22.1-.82M579.91 663.55s4.86.82 12.7 1.44" transform="translate(-131.59 -36)"/><path class="cls-1" d="M491.81 650.25v23.73M491.81 629.25v4.85M491.81 572.67v43.45M485.37 616.37l.25-43.95M485.27 635.16l.03-5.47M485.05 673.74l.13-23.49M474.14 662.26l10.91-2.46M447.96 668.17l12.48-2.82M485.09 667l-10.5 2.3M491.81 660.5l4.42 3.49M491.81 668.15l4.51 3.35"/><path class="cls-2" d="M441.06 566.45l-2.12 126.05"/><path class="cls-1" d="M564.78 584.54c7.88-.89 33.94-.92 33.94-.92l.06-2.74s-43.37-.76-43.37 2.24S613 584 613 584l1.25.73s-66.12 2.29-66.12-1.11c0-4.47 48.75-4.12 48.75-4.12l1.87 1.38" transform="translate(-131.59 -36)"/><path class="cls-1" d="M575.67 588.48c-14.49 0-27.51-.35-27.51-1.86v-3" transform="translate(-131.59 -36)"/><path class="cls-1" d="M482.69 549.99v-1.26M425.96 658.79l-.15 18.65-4.5 1.01-5.75-3.12 1-124.71M426.81 552.22l-.79 99.24M423.33 552.03l-2.02 126.42M447.82 653.07l12.62.93M421.75 651.15l15.87 1.17M447.82 660.57l12.51 1.02M421.63 658.44l15.9 1.29M447.82 645.1l12.96-2.39M426.04 649.13l11.59-2.14M447.96 650.86l12.73-1.81M459.06 562.72l-.87 55.45"/><path class="cls-1" d="M569.79 640.18c-5.59.59-10.36 1.46-11.78 2.69M593 638.87s-6.15.1-13.32.52M579.91 649.16c3.12 0 6.45-.11 9.88-.39M558 647.34a109.89 109.89 0 0 0 11.78 1.44M579.59 651.87a66.5 66.5 0 0 0 10.14-.72M557.91 650s5 .87 11.67 1.41" transform="translate(-131.59 -36)"/><path class="cls-2" d="M418.56 566.45v94.05"/><path class="cls-1" d="M841.81 716.63l6 3.76 39-72.41-5-4.58-40 73.23zM886.81 640.5v7.48l74.5-7.48v-6.83l-74.5 6.83zM966.14 636.33l-4.83 4.17 36 60.5 4.33-3.67-35.5-61zM1001.64 697.33l3.84-3-6.87-2.21M538.49 584.27l-8.82-3.88M564.41 595.65l-2.77-1.21M579.14 602.12l-1.77-.78M628.61 623.85l-6.72-2.95M650.58 633.5l-8.96-3.94M691.28 651.37l-6.03-2.65M748.98 676.71l-41.19-18.08M841.81 716.63l-74.31-31.95M881.81 643.4l-24.38-6.59M961.31 633.67L547.6 537.5h-37.46l-16.08 17.13M966.14 636.33l-4.77-1.01"/><path class="cls-1" d="M934.31 643.91V895.5l-56.67 9 4.74-248.3M850.96 714.54l29.89 21.94M934.31 717.04l39.87-54.91M864.31 725.51v107.6l14.5 10.08-46.5 69.31-14-8 46-71.39M832.31 912.5l45.33-8M934.31 833.11l47.17 52.06-47.17 10.33M532.98 623.78l-14.64-9.25M547.59 633.01l-5.1-3.22M578.45 652.51l-9.8-6.2M609.73 672.27l-19.51-12.33M651.99 698.97l-2.57-1.62M690.35 723.2l-26.32-16.63M711.05 736.28l-4.64-2.93M864.31 833.11l-90.44-57.14M689.49 809.83l-24.49-18M748.98 853.55l-27.27-20.04M818.31 904.5l-51.47-37.83M532.98 651.4l-4.32-3.15M578.43 684.56l-3.56-2.59M592.92 695.14l-2.97-2.17M652.78 738.82l-4.05-2.96M749 809.03l-29.61-21.61M839.79 871.17l-72.64-49.72M532.99 614l-14.76-8.95M547.56 622.83l-5.08-3.08M578.7 641.7l-9.84-5.96M609.73 660.51l-19.59-11.87M651.5 685.82l-1.67-1.01M748.98 744.9l-42.31-25.64M864.31 812.5l-97.1-56.92"/><path class="cls-2" d="M774.89 792.84l73.67 48.49M794.31 829.33l42 25.42M892.31 683.56l-5.5 195M920.31 767.47v114.21M785.74 848.17l39.9 25.41"/><path class="cls-1" d="M1053.5 647.11c16.24-1.74 60.14-5.39 105.69-.12 57.46 6.64 49 16.61-22 16.51l9 3.5c74.5.14 78.75-13.75 18.5-23s-117.75 1.25-117.75 1.25z" transform="translate(-131.59 -36)"/><path class="cls-1" d="M1137.16 663.5v7.12l9 3.38c41.62.08 61.33-4.28 59.89-9.76l.22-6.12" transform="translate(-131.59 -36)"/><path class="cls-1" d="M1014.56 631v7"/><path class="cls-1" d="M1065.92 653.13c25.23-1.31 101.49-4.16 118.51 8" transform="translate(-131.59 -36)"/><path class="cls-1" d="M878.81 614l-2.5-4.13 54.33 4.79 19.2 16.34M915.31 609.25v4.06M921.91 611.11v2.78M1060.43 739l-1.62-103.49M1061.53 809l-.8-50.72M1067.42 633.67l3.89 209.33h-9.25l-.18-11.57M1031.32 637.76l3.24 249.49-10.5 3.25-8.25-4-5.69-250.17M1019.31 638l4.75 252.5"/><path class="cls-1" d="M1033.89 836l27.64-27h9.15l-36.65 37.31M1034.19 858.75l36.74-36.25M934.31 802.5l80.56 42.49M1014.77 840.63l-80.46-43.88M934.31 812.5l80.87 46.25M939.02 799.32l74.88 3.18M964.95 813.46l49.26 2.54M1019.31 617.3v10.08"/><path class="cls-1" d="M1144.56 797.29q-4.74.27-9.9.46L1065.91 769M1164.06 762c2.81.8 5 1.53 7.65 2.55 35.49 13.51 33.88 25.8-7.15 31M1065.91 761.51s39.93-8.39 77.75-3.65" transform="translate(-131.59 -36)"/><path class="cls-1" d="M1164.57 801.5c22.51-2.85 33.15-7.84 32.31-14v-5.75M1065.91 775l68.75 28.75q5.16-.19 9.9-.46" transform="translate(-131.59 -36)"/><path class="cls-1" d="M1003.06 761.75v6"/><path class="cls-2" d="M1044.31 648.72l2.33 68.32"/><path class="cls-2" d="M1183.88 805.83c-.64.67 0 29.49 0 29.49" transform="translate(-131.59 -36)"/><path class="cls-1" d="M1002.91 636.67c25.33-.17 75.33-5 36.33-13.67s-108-1.42-108-1.42l5.33 2.34s60.45-5.32 97.63.54-10.48 9.13-34.64 9.24z" transform="translate(-131.59 -36)"/><path class="cls-1" d="M1053.59 628.91v5.86c1.2 5-31.67 7.77-50.67 7.9v-6" transform="translate(-131.59 -36)"/><path class="cls-1" d="M1039.57 631.29c-20.5-10.21-103.33-1.79-103.33-1.79l.33-5.58" transform="translate(-131.59 -36)"/><path class="cls-1" d="M867.97 597.71v5.71l3.34 3.25M919.64 601.24v7.01M913.07 603.13v9.98M885.31 606.67v3.99M875.06 606.67v6.95M816.2 592.48v7.31M803.01 592.91v3.96M805.17 700.88v76.19M818.31 762.09v23.45M818.31 706.52v42.73"/><path class="cls-1" d="M942.39 782c1 0 53.52 23.8 53.52 23.8" transform="translate(-131.59 -36)"/><path class="cls-1" d="M810.79 758.75l53.52 23.79M818.31 742.73l46-1.64M824.79 752.04h39.52M741.43 673.47l1.05 67.62M767.66 711.25l37.51 1M767.66 720.39l36.98.71M831.63 712.25L818.31 722M818.31 736.17L835.56 722v-8.06M839.59 715.68v26.23M831.84 725.05l-.21 17.2M717.67 663.25l.12 62.74M717.79 694.73l23.82-10.05M717.79 704.5l23.64-9.97M717.67 678.45l23.76 1.58M717.79 686l17.13 1.5"/><path class="cls-1" d="M931.24 619.5c16.33-.5 61.67-5.33 30.67-11.67s-93.84.84-93.84.84l5.26 1.23s53.21-4 82.06-.15-13.34 6.78-28.54 7.08z" transform="translate(-131.59 -36)"/><path class="cls-1" d="M741.73 573.9v4.77l-5.25-1.59v-4.41"/><path class="cls-1" d="M873.33 614.67s71.83-5.75 83.16 0" transform="translate(-131.59 -36)"/><path class="cls-1" d="M795.25 580.83v4.75l4.39 2.67M799.64 583.5v8.21l5 1.79M840.9 576.11v5.97l-5.86 1.11M751.97 577.93v7.08M743.81 578.67v4.07M840.9 590.89v7.83M828.31 591.6v6.37"/><path class="cls-1" d="M954.24 637.24s7.17-4.16 7.67-4.37 23.5 4.37 23.5 4.37l5.11 8.63" transform="translate(-131.59 -36)"/><path class="cls-1" d="M813.6 704.5l45.33-70 63.08-9.97M810.79 703.29v77.77"/><path class="cls-1" d="M912.7 726.53c-.2-.09 39.21-68.19 39.21-68.19l33.5 9.46-44.65 70.79" transform="translate(-131.59 -36)"/><path class="cls-1" d="M853.81 631.8l2.13 1.87-43.91 70.15"/><path class="cls-1" d="M879 672.92l18.71-34.73-3.5-4.22s-24.5-6.22-26.09-6.37L843 673.73" transform="translate(-131.59 -36)"/><path class="cls-1" d="M730.57 668.09l10.86-20.17M737.4 647.94l-9.54 18.94M762.56 597.97l-19.61 38.95M689.14 614.26l14.34-26.34v-3.38l-25-8.18-14.18 30M676.48 637.52l6.66-12.24M680.11 625.26l-6.97 12.15M703.48 584.54l-17.39 30.3M614.31 591.46l19-29.13-19-5.2-19.04 35.22M633.31 562.33l.83 2.86-16.83 26.27M568.65 583.82l17.83-24.57v-2.12l-14.84-4.46-15.33 20.16M586.48 557.13l-20.88 26.69M539.24 565.98l13.07-15.93-1.17-2.43-11.9-2.79-18.1 21.74M551.14 547.62l-14.83 18.47"/><path class="cls-1" d="M645.24 595.29l14.17-14.46-.67-2.33s-9.33-1.5-9.25-1.67l-15.92 15.35" transform="translate(-131.59 -36)"/><path class="cls-1" d="M527.14 542.5l-15.86 16.75M510.14 537.5l26.17 5.99"/><path class="cls-1" d="M686.74 585.36c.5-.19 13.5 3.31 13.5 3.31M723.57 596.58c.5-.25 15.5 4.1 15.5 4.1M765.74 607.67c.5-.17 38.17 10.79 38.17 10.79" transform="translate(-131.59 -36)"/><path class="cls-1" d="M707.98 591.29l20.5 5.57M767.66 608.33l45.94 14.01"/><path class="cls-1" d="M843.53 602.63c27.2-.82 50.62-2.52 40.82-6.06-20.56-7.42-82.11-2.07-82.11-2.07l4.45 1.33s55.22-2.68 70.38.74-28.5 4-37.5 4.11z" transform="translate(-131.59 -36)"/><path class="cls-1" d="M839.57 600.68v3.15l4 1.8c23.8-.71 44.7-2.11 43-4.81l.1-2.75" transform="translate(-131.59 -36)"/><path class="cls-1" d="M711.94 566.63v3M670.64 558.5v3.58l4.5 1.42-.04-3.67"/><path class="cls-1" d="M806.74 599.5s58.69-3.08 65.76 0" transform="translate(-131.59 -36)"/><path class="cls-1" d="M714.06 569.63v6.48M721.14 569.63v7.76M711.04 569.22v5.7M753.67 566.19v4.56M744.47 567.82v3.85M683.89 563.5v5.68M676.98 563.5v4.07M620.56 547.25v4l5.92 1.42.08-3.67M626.48 552.67l17-.39v2.97l4.25 2.42M644.94 556.08v3.59M648.73 557.87V561M655.56 557.87v4.26M689.23 562.87v7.6M689.23 555.25v2.04M623.86 552.04v3.19M633.31 552.51v4.78M627.64 552.67v3.41"/><path class="cls-1" d="M717.07 574.58s54.51-1.91 59.47 2.17-39.5 4.44-39.5 4.44l-3.88-1.61s40.12.42 37.16-2.22c-2.79-2.49-50.58-1.19-50.58-1.19z" transform="translate(-131.59 -36)"/><path class="cls-1" d="M717.07 574.58v3.5l2.42.92s32.5-1.57 45.42-.25" transform="translate(-131.59 -36)"/><path class="cls-1" d="M588.14 540.17l-.25 2.83"/><path class="cls-1" d="M733.16 579.58v3.21l3.66 1.38a139.91 139.91 0 0 0 15.34 0M776.83 577.58v4s-3.09 1.16-11.92 1.36" transform="translate(-131.59 -36)"/><path class="cls-1" d="M605.45 545.19l-.22 2.98M611.06 548.39v3.65M603.88 547.66v2.55M592.64 542.75v4.91M586.48 542.75v3.24M518.81 271.96l82.75 7.54"/><path class="cls-1" d="M255.91 36.5c0 3 71 242 71 242l218 19.85" transform="translate(-131.59 -36)"/><path class="cls-1" d="M.5 151.5l174.81 218v277.27"/><path class="cls-1" d="M195.31 242.5v363.02l-160 329.98"/><path class="cls-1" d="M124.31 327.95h17.68v385.99h-17.68zM158.02 347.93v334.52M96.17 270.81v539.17M.5 582.46l87.41-41.96v-261M.5 181.5l87.41 98M.5 567.57l87.41-36.07M31.15 215.86v338.51M20.31 203.71v354.96M.5 414.5l87.41 22M.5 430.98l87.41 15.52"/><path class="cls-1" d="M962.57 39.17s-138 110-140.66 111.33l-.53 436.17-.56 4.58c-11.33 3.33-41.5 2.42-41.5 2.42v-3.59s48.17.42 41.42-4.25-68.58-2.58-68.58-2.58c.83.33 6 1.75 6 1.75s52.08-1.17 58 1.42-41.09 1.86-41.09 1.86l4.25 1.8" transform="translate(-131.59 -36)"/><path class="cls-1" d="M975.24 39.17l-146.67 114s.67 133.33 0 138l184.67-88.67V49.17l-150 105.33-4 104 154-77.33" transform="translate(-131.59 -36)"/><path class="cls-1" d="M727.69 222.5l-30.71 32.67M731.64 118.5l-34.66-1.33M770.71 91.07v109.82M763.56 96.09v108.39M809.46 63.86v117.56M817.01 58.55v119.08M855.85 31.28v126.84M864.97 24.87V154.8M728.51 200.89l153.13-83.72M730.83 140L881.64 37.83M749.34 106.07v21.39M789.31 78.01v22.37M833.95 46.66v23.48M845.97 62v74.67M822.34 78.01v71.58M797.7 94.7v68.36M780.91 106.07v66.17M756.45 122.64v62.97M740.65 133.35v60.9M749.34 189.5v22.12M789.31 167.65v23.9M833.95 143.24v25.88M939.02.5v605.02M1068.38 685.3l64.6 5.08 43.33 10.62M991.11 679.24l20.02 1.57M1068.76 705.61l64.22 4.14 40 11.35M997.31 701l-43.06-10.62M1132.98 690.38V17.83M596.68 118.5l23.88-54.65-40.75-28.35-54.5 23.05L620.56 236l-47.62 9-44.63-14 51.5-12 40.75 17"/><path class="cls-1" d="M576.61 154.13l3.2-118.63L620.56 236"/><path class="cls-1" d="M525.31 58.55L579.81 219v-58.92M528.31 231l24.25-91M611.81 237.65v300.48M611.81 83.88v109.07M635.81 31.28l-24 22.72v3.77M433.31 471.5h-20V241l105.5 10.5-2.49 220h-16.27"/><path class="cls-1" d="M425.96 255.17l82.52 9.33v193h-86.16l3.64-202.33zM222.31 341h7v291.03h-7zM222.31 606.67h7M222.31 625.55h7M400.37 341h7v275.46h-7zM400.37 592.45h7M400.37 610.32h7M400.37 457.5l-31.06-109.57-52.5 183.57-58.5-190.5-29 97.74 29 94.76 58.5-190 55.5 188L400.37 421"/><path class="cls-1" d="M400.37 400l-15.53-52.07-49.53 183.57-58-190.5-48 161.5 10.5 31 58.5-190 55.5 188L400.37 360"/><path class="cls-1" d="M400.37 517.5l-49.06-169.57-53 183.57-58.5-190.5-10.5 36.5 48 154 58-186 53.5 186 11.56-44.98M528.31 272.83V96.09l7.41-6.9M601.56 239.59V537.5M517.02 409.5h48.58v132.08"/><path class="cls-1" d="M517.02 420.75h39.29v118.78M556.31 477h-55.5M500.05 457.5v90.75M433.31 457.5v86.08M423.33 471.5v73.33M556.31 484.75l-37.1 52.75M514.89 477v60.5M506.48 477v64.66M514.89 528.5l36.25-51.5M543.73 420.75l12.58 26.75M534.06 516.39v21.11M534.06 477v24.27M534.06 461.84v6.91"/><path class="cls-1" d="M556.31 464l-22.25-43.25v32.85M541.31 458.54v-23.69M541.31 468.75v-2.41M541.31 490.97V477M541.31 537.5v-31.08"/><path class="cls-1" d="M516.66 441.75l39.65 27h-39.96M517.02 451.25l28.17 17.5M534.06 484.75l-19.17 27.75M528.56 477l-13.67 21.63M634.14 422.5h54.17v76.13h-54.17zM634.14 431h54.17M634.14 480.14h54.17"/><path class="cls-1" d="M667.06 422.5v-10.25h-68.5v55.3h-10.67M565.6 434.85h22.29v65.69H565.6M872.98 582.46V401.83h-19.17v180.63M853.81 590.85v10.39l-5.83 6.08M872.98 590.65v6.22M853.81 401.83l-135.83 18.92-18 23.75 133-10.37 20.83-25.96M832.98 434.13v3.04L701.64 446l-1.66-1.5"/><path class="cls-1" d="M716.79 444.98l-16.81 21.52 131-2.5 22.83-29.87M832.98 437.17L853.81 413"/><path class="cls-1" d="M853.81 440.06l-20.83 26.44-132 2-1-2M830.98 464l2 2.5M717.48 468.5l-18.5 21.17 1 2.48 133 4.85 20.83-26.5"/><path class="cls-1" d="M853.81 466l-22.83 27.83-132-4.16M830.98 493.83l2 3.17M715.98 492.73l-17 21.1 1 2.17 133.83 12.5 20-27"/><path class="cls-1" d="M853.81 498.63l-20.83 26.87-134-11.67M715.5 517.45l-15.52 20.05 1 2.33 132 18.67 20.83-25.33"/><path class="cls-1" d="M853.81 530l-21.83 25.25-132-17.75M831.98 555.25l1 3.25v13.17M757.78 547.87v22.6M700.98 539.83v16.8"/><path class="cls-1" d="M832.57 587.17c0 .16 113.17 18.46 113.17 18.46" transform="translate(-131.59 -36)"/><path class="cls-1" d="M888.06 376l39.75-4v87.25h-39.75V376zM407.37 598.02l8.81-.32M229.31 604.32l171.06-6.06M195.31 605.52l27-.95"/><path class="cls-2" d="M890.78 458.47c.38 0 11-1.1 11-1.1l-11.25 17.5-10.75.75z" transform="translate(-131.59 -36)"/><path class="cls-2" d="M777.56 420.5l20.25-1.5-12.62 18.38-20.38 1.75 12.75-18.63zM816.06 412.25l21.91-2.08-16.03 23.5-22.6 2.12 16.72-23.54zM739.19 425.08l11-1.08-11.5 16.06-9.38.57 9.88-15.55zM750.19 424l.45 1.08-10.89 15.55-1.06-.57M729.31 440.63l.83.95 9.61-.95M720.33 473.84l10.07-.17-12.76 15.08-9.39-.2 12.08-14.71z"/><path class="cls-2" d="M730.4 473.67l.37 1.11-12.64 14.8-.49-.83"/><path class="cls-2" d="M708.25 488.55l.62.84 9.26.19M739.51 474.97l10.06-.18-12.75 15.09-9.39-.2 12.08-14.71zM749.57 474.79l.37 1.12-12.64 14.8-.48-.83M727.43 489.68l.61.84 9.26.19M754.8 474.97l10.07-.18-12.76 15.09-9.39-.2 12.08-14.71zM764.87 474.79l.37 1.12-12.64 14.8-.49-.83"/><path class="cls-2" d="M742.72 489.68l.62.84 9.26.19M769.64 475.41l10.07-.17-12.76 15.08-9.39-.19 12.08-14.72zM779.71 475.24l.37 1.11-12.65 14.8-.48-.83M757.56 490.13l.61.83 9.26.19M788.47 476.41l10.07-.17-12.76 15.08-9.39-.19 12.08-14.72z"/><path class="cls-2" d="M798.54 476.24l.37 1.11-12.64 14.8-.49-.83"/><path class="cls-2" d="M776.39 491.13l.62.83 9.26.19M809.78 476.41l10.07-.17-12.76 15.08-9.39-.19 12.08-14.72zM819.85 476.24l.37 1.11-12.64 14.8-.49-.83"/><path class="cls-2" d="M797.7 491.13l.62.83 9.26.19M827.76 477l10.07-.18-12.76 15.08-9.39-.19L827.76 477zM837.83 476.82l.37 1.12-12.65 14.79-.48-.83M815.68 491.71l.61.83 9.26.19M721.25 499.08l10.06.4-13.6 14.32-9.37-.73 12.91-13.99zM731.31 499.48l.31 1.14-13.48 14.04-.43-.86M708.34 513.07l.57.87 9.23.72M740.33 501.31l10.06.41-13.61 14.32-9.36-.74 12.91-13.99z"/><path class="cls-2" d="M750.39 501.72l.31 1.13-13.48 14.04-.44-.85"/><path class="cls-2" d="M727.42 515.3l.57.87 9.23.72M755.6 502.19l10.06.41-13.61 14.32-9.36-.74 12.91-13.99z"/><path class="cls-2" d="M765.66 502.6l.31 1.14-13.48 14.04-.44-.86"/><path class="cls-2" d="M742.69 516.18l.57.87 9.23.73M770.39 503.49l10.06.41-13.61 14.32-9.36-.74 12.91-13.99z"/><path class="cls-2" d="M780.45 503.9l.3 1.13-13.47 14.04-.44-.85M757.48 517.48l.56.87 9.24.72M789.13 505.58l10.06.4-13.6 14.32-9.37-.73 12.91-13.99zM799.19 505.98l.31 1.14-13.48 14.04-.43-.86M776.22 519.57l.57.87 9.23.72M810.4 506.81l10.07.4-13.61 14.32-9.36-.73 12.9-13.99z"/><path class="cls-2" d="M820.47 507.21l.3 1.14-13.48 14.04-.43-.86M797.5 520.8l.56.87 9.23.72M828.32 508.43l10.06.4-13.61 14.32-9.36-.73 12.91-13.99z"/><path class="cls-2" d="M838.38 508.83l.3 1.14-13.47 14.04-.44-.86"/><path class="cls-2" d="M815.41 522.42l.57.87 9.23.72M719.25 523.18l10.02.91-14.31 13.62-9.31-1.21 13.6-13.32zM729.27 524.09l.25 1.16-14.17 13.34-.39-.88M705.65 536.5l.52.89 9.18 1.2M738.19 526.38l10.02.91-14.31 13.62-9.31-1.21 13.6-13.32z"/><path class="cls-2" d="M748.21 527.29l.25 1.15-14.17 13.34-.39-.87M724.59 539.7l.52.89 9.18 1.19M753.39 528.03l10.03.92-14.31 13.61-9.32-1.21 13.6-13.32zM763.42 528.95l.25 1.15-14.17 13.34-.39-.88M739.79 541.35l.52.9 9.19 1.19M768.1 530.08l10.02.91-14.31 13.62-9.31-1.21 13.6-13.32z"/><path class="cls-2" d="M778.12 530.99l.25 1.15-14.17 13.34-.39-.87M754.5 543.4l.52.89 9.18 1.19M786.71 533.11l10.03.91-14.32 13.62-9.31-1.21 13.6-13.32zM796.74 534.02l.24 1.15-14.16 13.34-.4-.87M773.11 546.43l.52.89 9.19 1.19M807.89 535.41l10.03.92-14.31 13.61-9.32-1.21 13.6-13.32zM817.92 536.33l.25 1.15L804 550.82l-.39-.88M794.29 548.73l.52.9 9.19 1.19M825.7 537.94l10.03.91-14.31 13.62-9.32-1.21 13.6-13.32z"/><path class="cls-2" d="M835.73 538.85l.25 1.15-14.17 13.34-.39-.87M812.1 551.26l.52.89 9.19 1.19"/><path class="cls-2" d="M855.41 462.5c.37 0 9.75-1.42 9.75-1.42l-11.25 16.42-9.13.75z" transform="translate(-131.59 -36)"/><path class="cls-2" d="M733.56 425.08l.97 1-11.16 16.17-1.06-.75M713.19 442.25l.9 1.15"/><path class="cls-2" d="M868.2 485.78c.37 0 9.83-.61 9.83-.61l-12.55 15.44h-9.16z" transform="translate(-131.59 -36)"/><path class="cls-2" d="M746.44 449.17l.88 1.08-12.44 15.2-1-.84M724.73 464.61l.8 1.22"/><path class="cls-2" d="M852.13 486.45c.37 0 9.83-.61 9.83-.61l-12.55 15.44h-9.16z" transform="translate(-131.59 -36)"/><path class="cls-2" d="M730.37 449.84l.88 1.08-12.44 15.2-1-.84M708.66 465.28l.8 1.22"/><path class="cls-2" d="M886.6 485.59c.37 0 9.83-.61 9.83-.61l-12.55 15.44h-9.16z" transform="translate(-131.59 -36)"/><path class="cls-2" d="M764.84 448.98l.88 1.07-12.44 15.2-1-.83M743.13 464.42l.8 1.22"/><path class="cls-2" d="M904 485.4c.37 0 9.83-.61 9.83-.61l-12.56 15.44h-9.17z" transform="translate(-131.59 -36)"/><path class="cls-2" d="M782.21 448.79l.89 1.07-12.45 15.2-.99-.83M760.5 464.23l.8 1.22"/><path class="cls-2" d="M921.33 484.79c.37 0 9.83-.61 9.83-.61l-12.56 15.44h-9.15z" transform="translate(-131.59 -36)"/><path class="cls-2" d="M799.56 448.18l.89 1.07-12.45 15.2-.99-.83M777.85 463.62l.8 1.22"/><path class="cls-2" d="M937.81 484.28c.37 0 9.83-.61 9.83-.61l-12.55 15.44h-9.16z" transform="translate(-131.59 -36)"/><path class="cls-2" d="M816.05 447.67l.88 1.08-12.44 15.19-1-.83M794.34 463.11l.8 1.22"/><path class="cls-2" d="M954.54 484.09c.37 0 9.83-.61 9.83-.61l-12.56 15.44h-9.15z" transform="translate(-131.59 -36)"/><path class="cls-2" d="M832.77 447.48l.89 1.07-12.44 15.2-1-.83M811.06 462.92l.81 1.22M770.19 421.37l.62 1.38-11 16.87-.87-.75M748.19 439.62l1.12 1.01M797.81 419l.67.92-12.07 17.84M837.97 410.17l.76.91-16.25 23.5-.54-.91M799.34 435.79l.88.89M574.31 51.5l-1.37 75.96M585.98 139.16l24 65.32M540.44 217.17l12.12-48.05M593.64 57.77l4.95 42.61M717.31 106.07l112.33-86.24M700.98 124.5v104.33M991.11 70.14v286.19M1083.38 237.65v344.81M1014.21 149.59V471.5M175.31 17.83l41.11 193.79M186.42 703.39l225.36-10.32M148.92 778.57l236.99-15.15"/><path class="cls-2" d="M408 788c4.5-.46 175.61-8 175.61-8" transform="translate(-131.59 -36)"/><path class="cls-2" d="M58.93 618.17v169.38M35.31 760.42v130.75M208.81 908.5l349.31-18"/><path class="cls-2" d="M162.74 153.17C163.52 157.61 300 355.6 300 355.6" transform="translate(-131.59 -36)"/><path class="cls-1" d="M708.02 637.52v-13.53M695.64 637.41v-12.88M691.31 637.79v-13.13M999.6 699.06l11.97 1.11"/><path fill="#fff" stroke="#000" stroke-miterlimit="10" d="M663.82 693.27l26.83 16.27"/></svg>